<svg class="animated" id="freepik_stories-workout" xmlns="http://www.w3.org/2000/svg" viewBox="0 0 500 500" version="1.1" xmlns:xlink="http://www.w3.org/1999/xlink" xmlns:svgjs="http://svgjs.com/svgjs"><style>svg#freepik_stories-workout:not(.animated) .animable {opacity: 0;}svg#freepik_stories-workout.animated #freepik--Plants--inject-16--inject-68 {animation: 1.5s Infinite  linear floating;animation-delay: 0s;}            @keyframes floating {                0% {                    opacity: 1;                    transform: translateY(0px);                }                50% {                    transform: translateY(-10px);                }                100% {                    opacity: 1;                    transform: translateY(0px);                }            }        </style><!--Workout--><g id="freepik--Floor--inject-16--inject-68" class="animable" style="transform-origin: 251.12px 316.8px;"><ellipse id="freepik--floor--inject-16--inject-68" cx="251.12" cy="316.8" rx="238.53" ry="140.13" style="fill: rgb(245, 245, 245); transform-origin: 251.12px 316.8px;" class="animable"></ellipse></g><g id="freepik--Shadows--inject-16--inject-68" class="animable" style="transform-origin: 250.926px 348.327px;"><path id="freepik--Shadow--inject-16--inject-68" d="M93.46,371.25c5.9,1.17,12.09.86,18,2.05a70.68,70.68,0,0,1,11.83,3.83q5.2,2,10.38,4.08c.69.27,9,3.13,9,3.52,14,5.22,28.22,12.73,43.64,11.83a13.74,13.74,0,0,0,12.89-14.78c-.22-2.93-1.39-5.83-1-8.75,1.15-7.82,8.33-7,14.1-5.67,3.37.78,6.69,1.73,10,2.79,8.66,2.78,17.78,5.38,24.67,11.65,4.43,4,8.7,5.63,14.69,6.3,4.17.47,8.29.73,12.29,2.12s7.38,4,11,6a30.83,30.83,0,0,0,32.11-1.83c1.55-1.1,3.14-2.71,2.84-4.59-.74-4.52-8.31-5.44-11.52-7.34-5.79-3.44-11.61-6.85-17.47-10.18q-17.6-10-35.6-19.2c-12.82-6.57-25.83-12.86-39.38-17.77-6.67-2.42-14.28-4.46-20.66-1.34-5.15,2.51-7.18,7.28-10.52,11.52-3.11,3.94-7.14,8-11.71,10.23-3.64,1.76-7.77,2.18-11.81,2.36-13.41.6-26.83-1-40-3.46-5.58-1-11.22-2.23-16.89-1.88-6.08.37-16,1.93-19.37,7.8a8.09,8.09,0,0,0-1.13,3,5.64,5.64,0,0,0,2,4.61,11.72,11.72,0,0,0,4.6,2.36A29.13,29.13,0,0,0,93.46,371.25Z" style="fill: rgb(224, 224, 224); transform-origin: 201.884px 366.129px;" class="animable"></path><ellipse id="freepik--shadow--inject-16--inject-68" cx="396.43" cy="309.25" rx="21.59" ry="12.47" style="fill: rgb(224, 224, 224); transform-origin: 396.43px 309.25px;" class="animable"></ellipse><path id="freepik--shadow--inject-16--inject-68" d="M379.71,388.55l-3.53-2c-2.39-1.38-2.39-3.62,0-5L384,377,355.6,360.56l-7.85,4.54a9.57,9.57,0,0,1-8.66,0l-3.53-2c-2.39-1.38-2.39-3.62,0-5L359.4,344.3a9.57,9.57,0,0,1,8.66,0l3.52,2c2.4,1.38,2.4,3.62,0,5l-8.67,5,28.43,16.42,8.68-5a9.57,9.57,0,0,1,8.66,0l3.53,2c2.39,1.38,2.39,3.62,0,5l-23.84,13.76A9.57,9.57,0,0,1,379.71,388.55Z" style="fill: rgb(224, 224, 224); transform-origin: 373.885px 366.408px;" class="animable"></path></g><g id="freepik--Plants--inject-16--inject-68" class="animable" style="transform-origin: 259.741px 208.305px;"><g id="freepik--plants--inject-16--inject-68" class="animable" style="transform-origin: 454.279px 208.305px;"><path d="M440.07,249.23l-9.53-5.5s-2.33-20.4-.78-36.2c2.18-22.21,16.52-48.92,33.63-42.65s-7.85,28.89-13.4,47.72S440.07,249.23,440.07,249.23Z" style="fill: rgb(197, 63, 63); transform-origin: 449.262px 206.59px;" id="eldsjhbisrtlc" class="animable"></path><g id="eltt9c8hppkzd"><path d="M440.07,249.23l-9.53-5.5s-2.33-20.4-.78-36.2c2.18-22.21,16.52-48.92,33.63-42.65s-7.85,28.89-13.4,47.72S440.07,249.23,440.07,249.23Z" style="opacity: 0.15; transform-origin: 449.262px 206.59px;" class="animable"></path></g><path d="M435.06,246.91h0a.58.58,0,0,0,.55-.59c-1.67-49.34,22.89-74.15,23.14-74.4a.58.58,0,0,0-.81-.82c-.26.25-25.17,25.42-23.48,75.26A.57.57,0,0,0,435.06,246.91Z" style="fill: rgb(255, 255, 255); transform-origin: 446.628px 208.943px;" id="elg2o3esbveem" class="animable"></path><path d="M446.06,252.66l-6.78-3.92s-1.16-14,5.71-31c6-14.81,20.8-27.09,28.26-24.51s7.27,7.87,3.63,13.41S451.13,225.41,446.06,252.66Z" style="fill: rgb(197, 63, 63); transform-origin: 459.268px 222.773px;" id="elqa0l8orp14h" class="animable"></path><path d="M442.48,251.17h0a.58.58,0,0,0,.58-.58c-.14-31.19,29.15-52.27,29.45-52.48a.58.58,0,0,0,.13-.81.56.56,0,0,0-.8-.13c-.3.21-30.07,21.64-29.94,53.43A.59.59,0,0,0,442.48,251.17Z" style="fill: rgb(255, 255, 255); transform-origin: 457.325px 224.113px;" id="elbogk4bbqw6b" class="animable"></path></g><g id="freepik--plants--inject-16--inject-68" class="animable" style="transform-origin: 63.8548px 208.968px;"><path d="M76.21,240.41l8-4.64S89,215.91,87.12,198c-2.68-25.13-19.23-34.58-25.52-32.42s-8.11,9.48,2.3,24.45C70,198.89,77.59,217.29,76.21,240.41Z" style="fill: rgb(197, 63, 63); transform-origin: 72.0218px 202.846px;" id="el635dosyf" class="animable"></path><g id="elzj50uwk9lm"><g style="opacity: 0.15; transform-origin: 72.0218px 202.846px;" class="animable"><path d="M76.21,240.41l8-4.64S89,215.91,87.12,198c-2.68-25.13-19.23-34.58-25.52-32.42s-8.11,9.48,2.3,24.45C70,198.89,77.59,217.29,76.21,240.41Z" id="elmvvbrkxery8" class="animable" style="transform-origin: 72.0218px 202.846px;"></path></g></g><path d="M79.54,230.65h-.08A.55.55,0,0,1,79,230c4.4-23.18-3.7-49.22-13.73-60.06a.56.56,0,0,1,.82-.76c10.21,11,18.47,37.51,14,61A.54.54,0,0,1,79.54,230.65Z" style="fill: rgb(255, 255, 255); transform-origin: 73.2379px 199.837px;" id="el345zm2pp6jb" class="animable"></path><path d="M55.17,252.56c-1.27.65-4.65-2.24-5.59-2.94a11.78,11.78,0,0,1-3.69-4.69,11.13,11.13,0,0,1-.64-6.67,26.15,26.15,0,0,1,1-3.48c.39-1.13.77-2.25,1.16-3.37a8.7,8.7,0,0,0,.67-3.43c-.18-2.35-2.17-4.09-4-5.6-2-1.67-4.07-3.84-3.92-6.66A9.9,9.9,0,0,1,43,210c1.43-1.64,3.1-3.07,4.41-4.8A7,7,0,0,0,49,200.85a7.25,7.25,0,0,0-.82-2.78,39.33,39.33,0,0,1-2.71-5.63c-.59-2-.37-4.45,1.24-5.78,1.32-1.09,3.2-1.16,4.91-1a11.17,11.17,0,0,1,4.42,1.81c4.35,2.71,6.63,8.14,11.27,10.29A48,48,0,0,0,73,199.49c1.89.6,3.78,1.67,4.57,3.48,1.57,3.56-1.88,7.69-.84,11.44.92,3.32,4,4.73,5.66,7.76a7,7,0,0,1,.62,4.32,20.6,20.6,0,0,1-2.17,7.14,63.68,63.68,0,0,1-4.29,6.59Z" style="fill: rgb(197, 63, 63); transform-origin: 61.6343px 219.125px;" id="elmqykpptald" class="animable"></path><path d="M67.46,246.16h0a.57.57,0,0,1-.52-.61c2-22.05-7.14-47-14.35-54.43a.56.56,0,0,1,0-.79.56.56,0,0,1,.79,0C60.73,198,70.11,223.29,68,245.65A.55.55,0,0,1,67.46,246.16Z" style="fill: rgb(255, 255, 255); transform-origin: 60.3645px 218.163px;" id="eldo3lon3ig3a" class="animable"></path><path d="M65.27,219a.45.45,0,0,1-.16,0,74.45,74.45,0,0,0-15.9-3.39.56.56,0,0,1-.51-.61.53.53,0,0,1,.61-.5,75.52,75.52,0,0,1,16.18,3.45.56.56,0,0,1-.22,1.08Z" style="fill: rgb(255, 255, 255); transform-origin: 57.27px 216.762px;" id="elunj8abosril" class="animable"></path></g></g><g id="freepik--Dumbbell--inject-16--inject-68" class="animable" style="transform-origin: 370.309px 352.446px;"><g id="freepik--dumbbell--inject-16--inject-68" class="animable" style="transform-origin: 370.309px 352.446px;"><path d="M365.22,331.33h0c-1.88-6.13-9.53-11.2-16.69-9.2h0a13.64,13.64,0,0,0-3.22,1.37c-6.95,4-12.57,13.75-12.57,21.77a13,13,0,0,0,.56,4h0c1.87,6.13,9.53,11.17,16.69,9.16h0a13.64,13.64,0,0,0,3.22-1.37c6.94-4,12.57-13.76,12.57-21.78A13.11,13.11,0,0,0,365.22,331.33Z" style="fill: rgb(69, 90, 100); transform-origin: 349.26px 340.283px;" id="elm73l3fuwak" class="animable"></path><path d="M353.2,357.05c6.94-4,12.57-13.76,12.57-21.78S360.14,324,353.2,328s-12.57,13.75-12.57,21.77S346.26,361.06,353.2,357.05Z" style="fill: rgb(55, 71, 79); transform-origin: 353.2px 342.526px;" id="el8tfk3flpx9" class="animable"></path><path d="M353.2,336.9c2.67-1.54,4.83-.29,4.83,2.8a10.68,10.68,0,0,1-4.83,8.37c-2.67,1.54-4.83.29-4.83-2.79A10.7,10.7,0,0,1,353.2,336.9Z" style="fill: rgb(69, 90, 100); transform-origin: 353.2px 342.485px;" id="el2m9nbzw2al5" class="animable"></path><path d="M354.85,341.53a3.66,3.66,0,0,1-1.65,2.87,1.19,1.19,0,0,1-1.11.15l-.12-.07a1.21,1.21,0,0,1-.43-1,3.69,3.69,0,0,1,1.66-2.87,1.18,1.18,0,0,1,1.11-.14l.12.06A1.2,1.2,0,0,1,354.85,341.53Z" style="fill: rgb(55, 71, 79); transform-origin: 353.195px 342.508px;" id="elx108k5xsu4b" class="animable"></path><path d="M381.41,356.86a3.67,3.67,0,0,1-1.65,2.87,1.38,1.38,0,0,1-.72.22,1.1,1.1,0,0,1-.55-.16l-26.4-15.24-.12-.07a1.21,1.21,0,0,1-.43-1,3.69,3.69,0,0,1,1.66-2.87,1.18,1.18,0,0,1,1.11-.14l.12.06,26.4,15.24A1.16,1.16,0,0,1,381.41,356.86Z" style="fill: rgb(250, 250, 250); transform-origin: 366.475px 350.17px;" id="el1h42mjln5xtj" class="animable"></path><path d="M407.32,355.63h0c-1.87-6.13-9.53-11.2-16.69-9.19h0a13.87,13.87,0,0,0-3.23,1.37c-6.94,4-12.57,13.76-12.57,21.78a13.32,13.32,0,0,0,.56,4h0c1.88,6.13,9.53,11.17,16.69,9.17h0a13.4,13.4,0,0,0,3.22-1.37c6.94-4,12.57-13.76,12.57-21.77A13.12,13.12,0,0,0,407.32,355.63Z" style="fill: rgb(69, 90, 100); transform-origin: 391.35px 364.599px;" id="el1pqi85jp4l5" class="animable"></path><path d="M395.31,381.35c6.94-4,12.57-13.76,12.57-21.77s-5.63-11.27-12.57-7.27-12.58,13.76-12.57,21.78S388.36,385.36,395.31,381.35Z" style="fill: rgb(55, 71, 79); transform-origin: 395.31px 366.834px;" id="el0ojc9odai3xl" class="animable"></path><path d="M395.31,361.21c2.67-1.54,4.83-.3,4.83,2.79a10.68,10.68,0,0,1-4.83,8.37c-2.67,1.54-4.84.29-4.84-2.79A10.69,10.69,0,0,1,395.31,361.21Z" style="fill: rgb(69, 90, 100); transform-origin: 395.305px 366.789px;" id="elbzdd7yg6j0b" class="animable"></path><path d="M397,365.83a3.67,3.67,0,0,1-1.65,2.87,1.19,1.19,0,0,1-1.11.15.35.35,0,0,1-.12-.07,1.21,1.21,0,0,1-.43-1,3.68,3.68,0,0,1,1.66-2.88,1.19,1.19,0,0,1,1.1-.14l.12.07A1.18,1.18,0,0,1,397,365.83Z" style="fill: rgb(55, 71, 79); transform-origin: 395.346px 366.804px;" id="elhpyxrz1g90v" class="animable"></path><path d="M401,368.15a3.64,3.64,0,0,1-1.65,2.86,1.38,1.38,0,0,1-.72.22,1,1,0,0,1-.55-.16l-3.84-2.22a.35.35,0,0,1-.12-.07,1.21,1.21,0,0,1-.43-1,3.68,3.68,0,0,1,1.66-2.88,1.19,1.19,0,0,1,1.1-.14l.12.07,3.85,2.21A1.17,1.17,0,0,1,401,368.15Z" style="fill: rgb(250, 250, 250); transform-origin: 397.346px 367.957px;" id="el8ui1dnc2h5u" class="animable"></path><path d="M401,368.13a3.67,3.67,0,0,1-1.65,2.88,1.21,1.21,0,0,1-1.11.14l-.12-.07a1.19,1.19,0,0,1-.43-1,3.68,3.68,0,0,1,1.66-2.87,1.19,1.19,0,0,1,1.11-.15l.12.07A1.2,1.2,0,0,1,401,368.13Z" style="fill: rgb(224, 224, 224); transform-origin: 399.345px 369.106px;" id="elo4261vuaghn" class="animable"></path></g></g><g id="freepik--Bottle--inject-16--inject-68" class="animable" style="transform-origin: 396.413px 275.675px;"><g id="freepik--Water--inject-16--inject-68" class="animable" style="transform-origin: 396.413px 275.675px;"><path d="M411.62,282.61a35.42,35.42,0,0,0-2.52-6.52c-.11-.24-.23-.48-.35-.71a13.42,13.42,0,0,1,.18-12.6l.23-.4a14.26,14.26,0,0,0,1.95-7.42,8.74,8.74,0,0,0-4.23-7,15.62,15.62,0,0,0-2-1,3.36,3.36,0,0,1-2.13-3.11l0-3.84-12.29,0,0,3.84a3.34,3.34,0,0,1-2.15,3.09,13.75,13.75,0,0,0-2,.94,8.75,8.75,0,0,0-4.29,7,14.29,14.29,0,0,0,1.89,7.43l.21.37a13.39,13.39,0,0,1,.1,12.63c-.12.24-.24.47-.35.71a34.47,34.47,0,0,0-2.57,6.5,30.61,30.61,0,0,0-.6,6.62L380.69,307c0,2.32,1.51,4.65,4.56,6.42a21.52,21.52,0,0,0,8.89,2.6,27.43,27.43,0,0,0,4.44,0,21.54,21.54,0,0,0,8.84-2.52c3.07-1.75,4.61-4.06,4.62-6.38l0-12.94c0-1.61.07-3.29.08-5A30.45,30.45,0,0,0,411.62,282.61Z" style="fill: rgb(197, 63, 63); transform-origin: 396.413px 278.06px;" id="elggqgp4xb9i" class="animable"></path><g id="elyt3q7up5b1d"><path d="M411.62,282.61a35.42,35.42,0,0,0-2.52-6.52c-.11-.24-.23-.48-.35-.71a13.42,13.42,0,0,1,.18-12.6l.23-.4a14.26,14.26,0,0,0,1.95-7.42,8.74,8.74,0,0,0-4.23-7,15.62,15.62,0,0,0-2-1,3.36,3.36,0,0,1-2.13-3.11l0-3.84-12.29,0,0,3.84a3.34,3.34,0,0,1-2.15,3.09,13.75,13.75,0,0,0-2,.94,8.75,8.75,0,0,0-4.29,7,14.29,14.29,0,0,0,1.89,7.43l.21.37a13.39,13.39,0,0,1,.1,12.63c-.12.24-.24.47-.35.71a34.47,34.47,0,0,0-2.57,6.5,30.61,30.61,0,0,0-.6,6.62L380.69,307c0,2.32,1.51,4.65,4.56,6.42a21.52,21.52,0,0,0,8.89,2.6,27.43,27.43,0,0,0,4.44,0,21.54,21.54,0,0,0,8.84-2.52c3.07-1.75,4.61-4.06,4.62-6.38l0-12.94c0-1.61.07-3.29.08-5A30.45,30.45,0,0,0,411.62,282.61Z" style="opacity: 0.3; transform-origin: 396.413px 278.06px;" class="animable"></path></g><g id="elyk36m1sr87"><path d="M408.93,262.78l.23-.4a14.27,14.27,0,0,0,1.91-6.28,11.25,11.25,0,0,1-1.17,2.54,24.26,24.26,0,0,1-5.53,5.78c-2.11,1.72-4.45,3.67-4.71,6.38s1.59,5,3.69,6.58,4.56,2.7,6.45,4.53a16.17,16.17,0,0,1,2.14,2.67,18.38,18.38,0,0,0-.32-2,35.15,35.15,0,0,0-2.52-6.52c-.11-.24-.23-.48-.35-.71A13.42,13.42,0,0,1,408.93,262.78Z" style="opacity: 0.1; transform-origin: 405.788px 270.34px;" class="animable"></path></g><path d="M388.43,244.28v2.07c0,1.23.8,2.47,2.44,3.43a13,13,0,0,0,11.8,0,5.42,5.42,0,0,0,1.84-1.59,3.13,3.13,0,0,0,.62-1.8v-2.1a2.14,2.14,0,0,0-.06-.56,4.49,4.49,0,0,0-2.36-2.86l-.12-.07a13.13,13.13,0,0,0-11.69,0,4.46,4.46,0,0,0-2.39,2.84A2.3,2.3,0,0,0,388.43,244.28Z" style="fill: rgb(197, 63, 63); transform-origin: 396.78px 245.312px;" id="el2pu583xw6cn" class="animable"></path><g id="elbm065exkfmg"><path d="M388.43,244.28v2.07c0,1.23.8,2.47,2.44,3.43a13,13,0,0,0,11.8,0,5.42,5.42,0,0,0,1.84-1.59,3.13,3.13,0,0,0,.62-1.8v-2.1a2.14,2.14,0,0,0-.06-.56,4.49,4.49,0,0,0-2.36-2.86l-.12-.07a13.13,13.13,0,0,0-11.69,0,4.46,4.46,0,0,0-2.39,2.84A2.3,2.3,0,0,0,388.43,244.28Z" style="opacity: 0.1; transform-origin: 396.78px 245.312px;" class="animable"></path></g><g id="elks9jivm5eqi"><path d="M402.67,247.73c3.26-1.87,3.28-4.92,0-6.82a13,13,0,0,0-11.8,0c-3.27,1.87-3.28,4.92,0,6.81A13,13,0,0,0,402.67,247.73Z" style="opacity: 0.2; transform-origin: 396.768px 244.318px;" class="animable"></path></g><path d="M388.44,241.87v1.25a2.36,2.36,0,0,0,.07.58,4.46,4.46,0,0,0,2.37,2.85,11.59,11.59,0,0,0,5.21,1.41,12.38,12.38,0,0,0,6.6-1.37,5.69,5.69,0,0,0,1.83-1.58,3.1,3.1,0,0,0,.55-1.24,2.17,2.17,0,0,0,.07-.57v-1.28c0-1.24-.8-2.47-2.42-3.42l-.45-.24a13.15,13.15,0,0,0-11.36.19C389.26,239.4,388.44,240.63,388.44,241.87Z" style="fill: rgb(197, 63, 63); transform-origin: 396.79px 242.527px;" id="eldklgx6hi5di" class="animable"></path><g id="el9ksaiyfqogk"><path d="M388.44,241.87v1.25a2.36,2.36,0,0,0,.07.58,4.46,4.46,0,0,0,2.37,2.85,11.59,11.59,0,0,0,5.21,1.41,12.38,12.38,0,0,0,6.6-1.37,5.69,5.69,0,0,0,1.83-1.58,3.1,3.1,0,0,0,.55-1.24,2.17,2.17,0,0,0,.07-.57v-1.28c0-1.24-.8-2.47-2.42-3.42l-.45-.24a13.15,13.15,0,0,0-11.36.19C389.26,239.4,388.44,240.63,388.44,241.87Z" style="opacity: 0.1; transform-origin: 396.79px 242.527px;" class="animable"></path></g><path d="M388.44,241.83c0,2.65,3.72,4.81,8.33,4.83s8.35-2.11,8.36-4.76-3.72-4.82-8.33-4.84S388.45,239.18,388.44,241.83Z" style="fill: rgb(197, 63, 63); transform-origin: 396.785px 241.86px;" id="el32th84iwo27" class="animable"></path><path d="M393.91,236.91v4.32a.68.68,0,0,0,0,.2,1.55,1.55,0,0,0,.82,1,3.93,3.93,0,0,0,1.81.49,4.3,4.3,0,0,0,2.28-.48,2.06,2.06,0,0,0,.64-.54,1.16,1.16,0,0,0,.19-.43,1.36,1.36,0,0,0,0-.2l0-4.34a1.44,1.44,0,0,0-.84-1.18l-.16-.08a4.51,4.51,0,0,0-3.93.06A1.46,1.46,0,0,0,393.91,236.91Z" style="fill: rgb(197, 63, 63); transform-origin: 396.778px 239.089px;" id="el36pebnwelgj" class="animable"></path><g id="el8qexu51xv4t"><path d="M393.91,236.91v4.32a.68.68,0,0,0,0,.2,1.55,1.55,0,0,0,.82,1,3.93,3.93,0,0,0,1.81.49,4.3,4.3,0,0,0,2.28-.48,2.06,2.06,0,0,0,.64-.54,1.16,1.16,0,0,0,.19-.43,1.36,1.36,0,0,0,0-.2l0-4.34a1.44,1.44,0,0,0-.84-1.18l-.16-.08a4.51,4.51,0,0,0-3.93.06A1.46,1.46,0,0,0,393.91,236.91Z" style="opacity: 0.1; transform-origin: 396.778px 239.089px;" class="animable"></path></g><path d="M393.91,236.89c0,.92,1.29,1.67,2.89,1.68s2.89-.74,2.9-1.65-1.29-1.67-2.89-1.68S393.92,236,393.91,236.89Z" style="fill: rgb(197, 63, 63); transform-origin: 396.805px 236.905px;" id="elzclo5wgp0d" class="animable"></path><g id="elar6zh9ibt06"><path d="M395.78,236.9c0,.33.46.59,1,.59s1-.26,1-.58-.46-.59-1-.6S395.78,236.57,395.78,236.9Z" style="fill: rgb(197, 63, 63); opacity: 0.5; transform-origin: 396.78px 236.9px;" class="animable"></path></g><g id="elkawu0xdl1ug"><path d="M395.78,236.9c0,.33.46.59,1,.59s1-.26,1-.58-.46-.59-1-.6S395.78,236.57,395.78,236.9Z" style="opacity: 0.3; transform-origin: 396.78px 236.9px;" class="animable"></path></g></g></g><g id="freepik--speech-bubble--inject-16--inject-68" class="animable" style="transform-origin: 301.772px 107.681px;"><g id="freepik--speach-bubble--inject-16--inject-68" class="animable" style="transform-origin: 301.772px 107.681px;"><path d="M339.78,68.6l-72.54,41.89a2.48,2.48,0,0,0-1.12,1.94v30.16a2.44,2.44,0,0,0,1.13,1.93l4,2.25a2.52,2.52,0,0,0,2.24,0L346,104.86a2.45,2.45,0,0,0,1.12-1.93V72.76A2.45,2.45,0,0,0,346,70.83l-4-2.24A2.51,2.51,0,0,0,339.78,68.6Z" style="fill: rgb(197, 63, 63); transform-origin: 306.62px 107.684px;" id="eldgs8bqahgo" class="animable"></path><path d="M272.38,146.11V116A2.47,2.47,0,0,1,273.5,114L346,72.12c.62-.36,1.12-.07,1.12.64v30.17a2.45,2.45,0,0,1-1.12,1.93l-72.54,41.9C272.88,147.11,272.38,146.83,272.38,146.11Z" style="fill: rgb(197, 63, 63); transform-origin: 309.75px 109.438px;" id="elmixjndegd3" class="animable"></path><g id="elsf01lbeblx"><path d="M273.5,146.76a2.55,2.55,0,0,1-2.24,0l-4-2.25a2.44,2.44,0,0,1-1.13-1.92V112.43a2.28,2.28,0,0,1,.36-1.14l6.23,3.56a2.26,2.26,0,0,0-.33,1.1v30.16C272.38,146.76,272.84,147.14,273.5,146.76Z" style="opacity: 0.2; transform-origin: 269.815px 129.155px;" class="animable"></path></g><g id="eltbnetimv3ja"><path d="M347.15,72.56c-.09-.57-.55-.77-1.11-.45L273.5,114a2.21,2.21,0,0,0-.79.84l-6.24-3.56a2.28,2.28,0,0,1,.77-.8L339.79,68.6a2.46,2.46,0,0,1,2.24,0l4,2.24A2.49,2.49,0,0,1,347.15,72.56Z" style="fill: rgb(255, 255, 255); opacity: 0.4; transform-origin: 306.81px 91.5851px;" class="animable"></path></g><path d="M263.06,136c-.71-.42-6-3.38-6.14-3.48a1,1,0,0,1-.22-1.6l9.52-7.88,6.16,3.5-9.51,7.89A1.05,1.05,0,0,0,263.06,136Z" style="fill: rgb(197, 63, 63); transform-origin: 264.387px 129.52px;" id="el7xjl0jiv0so" class="animable"></path><g id="el67hnfouznv"><path d="M263.06,136c-.71-.42-6-3.38-6.14-3.48a1,1,0,0,1-.22-1.6l9.52-7.88,6.16,3.5-9.51,7.89A1.05,1.05,0,0,0,263.06,136Z" style="opacity: 0.1; transform-origin: 264.387px 129.52px;" class="animable"></path></g><path d="M272.38,126.5l-9.52,7.88a1,1,0,0,0,.64,1.71l8.88-1Z" style="fill: rgb(197, 63, 63); transform-origin: 267.471px 131.295px;" id="elmrzoqvjwb7" class="animable"></path><path d="M278.08,123.7a.8.8,0,0,1-.07-.43,1.45,1.45,0,0,1,.15-.5l2.79-5.42.25-.47a1,1,0,0,1,.35-.38l1.58-.91a.17.17,0,0,1,.25,0,.58.58,0,0,1,.1.38v14.91a1.27,1.27,0,0,1-.1.5.61.61,0,0,1-.25.32l-1.7,1a.18.18,0,0,1-.25,0,.58.58,0,0,1-.1-.38V122.22l-1.55,3a.46.46,0,0,1-.26.27c-.09,0-.17,0-.23-.1Z" style="fill: rgb(250, 250, 250); transform-origin: 280.743px 124.143px;" id="elzlxgpyh7xg" class="animable"></path><path d="M288.05,128.28a1.27,1.27,0,0,1-.1.5.61.61,0,0,1-.25.32l-1.7,1a.18.18,0,0,1-.25-.05.56.56,0,0,1-.1-.37v-3a1.27,1.27,0,0,1,.1-.5.61.61,0,0,1,.25-.32l1.7-1a.18.18,0,0,1,.25,0,.58.58,0,0,1,.1.38Z" style="fill: rgb(250, 250, 250); transform-origin: 286.85px 127.47px;" id="elyezplne3sd8" class="animable"></path><path d="M292.43,125.75a1.25,1.25,0,0,1-.11.5.74.74,0,0,1-.24.33l-1.71,1a.17.17,0,0,1-.24,0,.57.57,0,0,1-.11-.38v-3a1.25,1.25,0,0,1,.11-.5.64.64,0,0,1,.24-.33l1.71-1a.17.17,0,0,1,.24,0,.57.57,0,0,1,.11.38Z" style="fill: rgb(250, 250, 250); transform-origin: 291.225px 124.975px;" id="elsqikjacm8lo" class="animable"></path><path d="M296.8,123.23a1.27,1.27,0,0,1-.1.5.61.61,0,0,1-.25.32l-1.7,1a.18.18,0,0,1-.25,0,.58.58,0,0,1-.1-.38v-3a1.24,1.24,0,0,1,.1-.5.69.69,0,0,1,.25-.33l1.7-1a.19.19,0,0,1,.25,0,.59.59,0,0,1,.1.38Z" style="fill: rgb(250, 250, 250); transform-origin: 295.6px 122.447px;" id="elmn7xr1i43tc" class="animable"></path><path d="M306,107.59a11.87,11.87,0,0,1-.08,1.33,10,10,0,0,1-.26,1.37,12.53,12.53,0,0,1-.5,1.45c-.2.5-.45,1-.74,1.59l-1.82,3.49,3.26-1.88a.17.17,0,0,1,.24,0,.59.59,0,0,1,.11.38v2.45a1.29,1.29,0,0,1-.11.5.65.65,0,0,1-.24.32l-6.86,4a.18.18,0,0,1-.25,0,.64.64,0,0,1-.1-.38v-2a3.74,3.74,0,0,1,.09-.78,2.42,2.42,0,0,1,.29-.79l3.88-7.19a5.94,5.94,0,0,0,.57-1.42,5,5,0,0,0,.12-1,4.22,4.22,0,0,0,0-.43,1.87,1.87,0,0,0-.15-.49.6.6,0,0,0-.33-.3.68.68,0,0,0-.58.12,1.67,1.67,0,0,0-.59.56,3.52,3.52,0,0,0-.35.7,3.79,3.79,0,0,0-.19.67c0,.22-.06.37-.08.48a1.25,1.25,0,0,1-.2.54,1.1,1.1,0,0,1-.32.29l-1.6.92a.15.15,0,0,1-.2,0,.52.52,0,0,1-.08-.31,11.11,11.11,0,0,1,.23-2.07,10.86,10.86,0,0,1,.67-2.12,8.7,8.7,0,0,1,1.12-1.92,5.32,5.32,0,0,1,1.57-1.39,2.57,2.57,0,0,1,1.52-.43,1.67,1.67,0,0,1,1.09.57,3.19,3.19,0,0,1,.67,1.34A7.54,7.54,0,0,1,306,107.59Z" style="fill: rgb(250, 250, 250); transform-origin: 302.43px 113.244px;" id="elyx888r4mtx" class="animable"></path><path d="M310.47,115.33a1.24,1.24,0,0,1-.1.5.64.64,0,0,1-.25.33l-1.7,1a.18.18,0,0,1-.25,0,.58.58,0,0,1-.1-.38v-3a1.24,1.24,0,0,1,.1-.5.75.75,0,0,1,.25-.33l1.7-1a.18.18,0,0,1,.25,0,.58.58,0,0,1,.1.38Z" style="fill: rgb(250, 250, 250); transform-origin: 309.27px 114.555px;" id="el4rynuuznwjp" class="animable"></path><path d="M314.85,112.81a1.29,1.29,0,0,1-.11.5.65.65,0,0,1-.24.32l-1.7,1a.18.18,0,0,1-.25-.05.58.58,0,0,1-.1-.38v-3a1.27,1.27,0,0,1,.1-.5.69.69,0,0,1,.25-.33l1.7-1a.17.17,0,0,1,.24,0,.59.59,0,0,1,.11.38Z" style="fill: rgb(250, 250, 250); transform-origin: 313.649px 111.99px;" id="elafwd6ehze" class="animable"></path><path d="M319.22,110.28a1.24,1.24,0,0,1-.1.5.69.69,0,0,1-.25.33l-1.7,1a.17.17,0,0,1-.24,0,.59.59,0,0,1-.11-.38v-3a1.21,1.21,0,0,1,.11-.49.59.59,0,0,1,.24-.33l1.7-1a.18.18,0,0,1,.25,0,.58.58,0,0,1,.1.38Z" style="fill: rgb(250, 250, 250); transform-origin: 318.021px 109.51px;" id="eldqshghwru95" class="animable"></path><path d="M327.94,89.72a.17.17,0,0,1,.24,0,.58.58,0,0,1,.1.38v2.45a1.57,1.57,0,0,1-.09.51c-.06.17-.11.32-.16.44l-1.58,3.73a1.76,1.76,0,0,1,1.65.6,3.85,3.85,0,0,1,.64,2.53,9.53,9.53,0,0,1-1,4.51,7.31,7.31,0,0,1-2.83,3,3.62,3.62,0,0,1-1.66.56,1.86,1.86,0,0,1-1.21-.33,2.3,2.3,0,0,1-.76-1,4.23,4.23,0,0,1-.28-1.51,1.15,1.15,0,0,1,.08-.41.68.68,0,0,1,.2-.27l1.64-.94c.18-.11.32-.11.42,0l.31.29a1,1,0,0,0,.46.21,1.27,1.27,0,0,0,.8-.24,3.08,3.08,0,0,0,1-1,2.46,2.46,0,0,0,.41-1.41c0-.54-.14-.85-.41-.94a1.29,1.29,0,0,0-1,.22l-1.08.63a.18.18,0,0,1-.25,0,.58.58,0,0,1-.1-.38v-2a1.52,1.52,0,0,1,.09-.51q.09-.27.18-.48L325.12,95,321.73,97a.18.18,0,0,1-.25,0,.58.58,0,0,1-.1-.38V94.13a1.24,1.24,0,0,1,.1-.5.64.64,0,0,1,.25-.33Z" style="fill: rgb(250, 250, 250); transform-origin: 324.879px 99.053px;" id="el26zbvll8a7j" class="animable"></path><path d="M333,102.31a1.24,1.24,0,0,1-.1.5.69.69,0,0,1-.25.33l-1.7,1a.17.17,0,0,1-.24,0,.57.57,0,0,1-.11-.38v-3a1.25,1.25,0,0,1,.11-.5.64.64,0,0,1,.24-.33l1.7-1a.18.18,0,0,1,.25,0,.58.58,0,0,1,.1.38Z" style="fill: rgb(250, 250, 250); transform-origin: 331.8px 101.535px;" id="elygxntxc374s" class="animable"></path><path d="M337.4,99.79a1.48,1.48,0,0,1-.1.5.66.66,0,0,1-.25.32l-1.7,1a.17.17,0,0,1-.25,0,.58.58,0,0,1-.1-.38v-3a1.24,1.24,0,0,1,.1-.5.69.69,0,0,1,.25-.33l1.7-1a.19.19,0,0,1,.25,0,.66.66,0,0,1,.1.38Z" style="fill: rgb(250, 250, 250); transform-origin: 336.199px 99.0089px;" id="el633yud6acpx" class="animable"></path><path d="M341.77,97.26a1.24,1.24,0,0,1-.1.5.74.74,0,0,1-.24.33l-1.71,1a.17.17,0,0,1-.24,0,.59.59,0,0,1-.11-.38v-3a1.29,1.29,0,0,1,.11-.5.65.65,0,0,1,.24-.32l1.71-1a.17.17,0,0,1,.24,0,.58.58,0,0,1,.1.38Z" style="fill: rgb(250, 250, 250); transform-origin: 340.571px 96.49px;" id="ellt4rwknfdhi" class="animable"></path></g></g><g id="freepik--Character--inject-16--inject-68" class="animable" style="transform-origin: 211.378px 244.39px;"><g id="freepik--character--inject-16--inject-68" class="animable" style="transform-origin: 211.378px 244.39px;"><g id="eloqgzupnwn8h"><g style="opacity: 0.3; transform-origin: 148.866px 282.565px;" class="animable"><path d="M149.81,277.71a.32.32,0,0,1-.14,0l-5.73-1.62a.78.78,0,0,1-.54-1,.8.8,0,0,1,1-.55l5.73,1.62a.79.79,0,0,1-.29,1.55Z" id="ela8e9e47fuxa" class="animable" style="transform-origin: 147.043px 276.112px;"></path><path d="M143.94,282.15a.8.8,0,0,1-.12-1.56l5.76-1.45a.78.78,0,0,1,1,.57.79.79,0,0,1-.57,1l-5.77,1.46A1.14,1.14,0,0,1,143.94,282.15Z" id="el6bm4o4hxvpm" class="animable" style="transform-origin: 146.931px 280.637px;"></path><path d="M146.84,287.47a.84.84,0,0,1-.5-.24.8.8,0,0,1,0-1.12l4.27-4.14a.78.78,0,0,1,1.11,0,.79.79,0,0,1,0,1.12l-4.27,4.15A.81.81,0,0,1,146.84,287.47Z" id="elu5uhcok2d5j" class="animable" style="transform-origin: 149.032px 284.605px;"></path><path d="M152,290.62l-.14,0a.8.8,0,0,1-.55-1l1.62-5.72a.79.79,0,1,1,1.52.43l-1.62,5.72A.78.78,0,0,1,152,290.62Z" id="elsj7zcumdpes" class="animable" style="transform-origin: 152.88px 286.967px;"></path></g></g><path d="M308.23,201.82l-14.29,8.25-31.39,4.54s-22.94-34.42-26.45-39.83-7.61-8.88-17.13-8.87l1.8,27.46c.3.88,19.27,24.26,31.78,37,4.42,4.49,7.14,5.63,14.05,3.72,17.63-4.89,39-19.38,40.72-23C309.58,206.36,308.06,201.91,308.23,201.82Z" style="fill: rgb(255, 168, 167); transform-origin: 263.772px 200.444px;" id="elxfhfcsewo8c" class="animable"></path><g id="freepik--dumbbell--inject-16--inject-68" class="animable" style="transform-origin: 297.26px 205.523px;"><path d="M302.34,184.41h0c1.88-6.12,9.53-11.19,16.69-9.19h0a13.93,13.93,0,0,1,3.23,1.38c6.94,4,12.57,13.75,12.57,21.77a13,13,0,0,1-.57,4h0c-1.88,6.13-9.53,11.17-16.69,9.16h0a13.29,13.29,0,0,1-3.22-1.38c-6.94-4-12.57-13.75-12.57-21.77A13.18,13.18,0,0,1,302.34,184.41Z" style="fill: rgb(69, 90, 100); transform-origin: 318.305px 193.378px;" id="el6f8ufddk9jt" class="animable"></path><path d="M314.36,210.13c-6.94-4-12.57-13.75-12.57-21.77s5.63-11.27,12.57-7.26,12.57,13.75,12.57,21.77S321.3,214.14,314.36,210.13Z" style="fill: rgb(55, 71, 79); transform-origin: 314.36px 195.615px;" id="elf3kb9z5ta4" class="animable"></path><path d="M314.36,190c-2.67-1.54-4.83-.29-4.83,2.79a10.7,10.7,0,0,0,4.83,8.38c2.67,1.54,4.84.29,4.84-2.79A10.69,10.69,0,0,0,314.36,190Z" style="fill: rgb(69, 90, 100); transform-origin: 314.365px 195.585px;" id="elg6kxf1fyl5o" class="animable"></path><path d="M312.71,194.62a3.66,3.66,0,0,0,1.65,2.87,1.22,1.22,0,0,0,1.11.15l.12-.07a1.23,1.23,0,0,0,.43-1,3.69,3.69,0,0,0-1.66-2.87,1.19,1.19,0,0,0-1.11-.15l-.12.07A1.22,1.22,0,0,0,312.71,194.62Z" style="fill: rgb(55, 71, 79); transform-origin: 314.365px 195.593px;" id="elnzx7cy1qrlh" class="animable"></path><path d="M286.15,210a3.68,3.68,0,0,0,1.65,2.87,1.48,1.48,0,0,0,.72.22,1.07,1.07,0,0,0,.55-.16l26.4-15.24.12-.07a1.23,1.23,0,0,0,.43-1,3.69,3.69,0,0,0-1.66-2.87,1.19,1.19,0,0,0-1.11-.15l-.12.07-26.39,15.24A1.15,1.15,0,0,0,286.15,210Z" style="fill: rgb(250, 250, 250); transform-origin: 301.084px 203.308px;" id="el4j4hfsnira" class="animable"></path><path d="M260.24,208.71h0c1.87-6.12,9.53-11.19,16.69-9.19h0a13.64,13.64,0,0,1,3.22,1.37c6.94,4,12.57,13.75,12.57,21.77a13.32,13.32,0,0,1-.56,4h0c-1.87,6.13-9.53,11.17-16.69,9.16h0a13.75,13.75,0,0,1-3.21-1.37c-6.95-4-12.57-13.76-12.57-21.78A13.23,13.23,0,0,1,260.24,208.71Z" style="fill: rgb(69, 90, 100); transform-origin: 276.205px 217.673px;" id="eloul9akqzebb" class="animable"></path><path d="M272.26,234.44c-6.95-4-12.57-13.76-12.57-21.78s5.62-11.26,12.57-7.26,12.57,13.75,12.57,21.77S279.2,238.44,272.26,234.44Z" style="fill: rgb(55, 71, 79); transform-origin: 272.26px 219.919px;" id="el19kc4g1b02u" class="animable"></path><path d="M272.26,214.29c-2.67-1.54-4.84-.29-4.84,2.8a10.69,10.69,0,0,0,4.84,8.37c2.67,1.54,4.83.29,4.83-2.79A10.7,10.7,0,0,0,272.26,214.29Z" style="fill: rgb(69, 90, 100); transform-origin: 272.255px 219.875px;" id="elrm2dybjlle" class="animable"></path><path d="M270.6,218.92a3.68,3.68,0,0,0,1.65,2.87,1.21,1.21,0,0,0,1.12.15l.12-.07a1.24,1.24,0,0,0,.42-1,3.67,3.67,0,0,0-1.66-2.87,1.17,1.17,0,0,0-1.1-.15l-.12.07A1.2,1.2,0,0,0,270.6,218.92Z" style="fill: rgb(55, 71, 79); transform-origin: 272.255px 219.895px;" id="elpj11ny6vf6" class="animable"></path><path d="M266.6,221.23a3.67,3.67,0,0,0,1.65,2.87,1.38,1.38,0,0,0,.72.22,1.1,1.1,0,0,0,.55-.16l3.85-2.22.12-.07a1.24,1.24,0,0,0,.42-1,3.67,3.67,0,0,0-1.66-2.87,1.17,1.17,0,0,0-1.1-.15l-.12.07-3.85,2.22A1.16,1.16,0,0,0,266.6,221.23Z" style="fill: rgb(250, 250, 250); transform-origin: 270.254px 221.048px;" id="elbhu9y58q6le" class="animable"></path><path d="M266.6,221.22a3.67,3.67,0,0,0,1.65,2.87,1.19,1.19,0,0,0,1.11.15l.12-.07a1.21,1.21,0,0,0,.43-1,3.68,3.68,0,0,0-1.66-2.87,1.16,1.16,0,0,0-1.1-.14l-.13.07A1.2,1.2,0,0,0,266.6,221.22Z" style="fill: rgb(224, 224, 224); transform-origin: 268.255px 222.198px;" id="elslpge07sb3" class="animable"></path></g><path d="M299.08,218.13c6.06-4.64,11.88-4.6,10.83-15.93-.89-5-2.12-5.35-7-7.25-2.15-.83-5-1.46-6.71.5a5.83,5.83,0,0,1-.63.68,3.38,3.38,0,0,1-1.68.54,4.87,4.87,0,0,0-3.06,1.3c-.57.64-.79,1.54-1.35,2.19a13.58,13.58,0,0,1-1.72,1.39,4.16,4.16,0,0,0-1.44,3.06,4.59,4.59,0,0,0,1.85,3.39l3-1.76c1.26-.87,3.84,2.2,2.73,3.83C292.18,212.65,299.08,218.13,299.08,218.13Z" style="fill: rgb(255, 168, 167); transform-origin: 298.177px 206.142px;" id="el1mgudlif8jlj" class="animable"></path><path d="M228.37,240.89c1.94-7.85,2.5-27.44,2.5-27.44l-56.78,1.71,3.09,12.37A50.15,50.15,0,0,1,178,236s5.51,10.21,21.84,12A44.23,44.23,0,0,0,228.37,240.89Z" style="fill: rgb(255, 168, 167); transform-origin: 202.48px 230.824px;" id="elwezs9aso7fb" class="animable"></path><path d="M230.87,213.45c.07.63-.32,6.56-.32,6.56-7.27,6.11-30.56,9.2-55,1.07l-5.18-20s17.58-7.72,5.71-33.62l12.76-1,22.67-.57H219a83.23,83.23,0,0,1,15.33,20.28C237.27,191.73,241.06,199.84,230.87,213.45Z" style="fill: rgb(69, 90, 100); transform-origin: 203.947px 195.943px;" id="elvrvw9dzmz8k" class="animable"></path><path d="M198.77,213.63c-10.22-2.61-12.79-9-13.52-13.7,0,0-1.93,13.7,12.69,16.9,15.42,3.36,21.76-8.85,21.76-8.85S211.12,216.78,198.77,213.63Z" style="fill: rgb(55, 71, 79); transform-origin: 202.433px 208.673px;" id="eluezyrk7ze8n" class="animable"></path><path d="M111.69,366.09c-3,2.19-9.91,2.72-16-.14s-8.64-11-7.5-17.29c1.38-7.67,5.17-11.87,6.14-16.48s0-11,1.45-15.12a11.8,11.8,0,0,1,7-6.88,7.13,7.13,0,0,1,6.26.55l1.81,1.06Z" style="fill: rgb(38, 50, 56); transform-origin: 99.8077px 338.809px;" id="el5ca2ol5qbh" class="animable"></path><path d="M118.85,336.84l-4.74,14.21s3,10.15,1.31,12.84c-2.5,4-6.88,4.71-14.27,2.45-8.46-2.57-10.45-10.22-10-16.16.59-8.47,8.42-14.84,7.52-23-.43-4,.11-8.48,2.3-11.91,2.45-3.85,6.47-4.57,10.65-3.31,3.57,1.08,6.71,3.33,9.74,5.44a10.73,10.73,0,0,1,2.34,2,7.31,7.31,0,0,1,1.2,2.4,12.7,12.7,0,0,1,.48,5.41c-.22,1.7-1.3,2.69-2.31,4Z" style="fill: rgb(55, 71, 79); transform-origin: 108.286px 339.502px;" id="el4xizgy29nqd" class="animable"></path><path d="M139.28,330.11c-.3-.12-14.78-9.38-16.34-10.07s-5.39-1.69-9.11,6.89c-2.65,6.12,1.16,8.38,1.16,8.38l17,10.1Z" style="fill: rgb(255, 168, 167); transform-origin: 126.086px 332.506px;" id="elb4c98vwh1rs" class="animable"></path><path d="M114.11,351.05a21.09,21.09,0,0,0-9.88-2.2,1.56,1.56,0,0,1-1.65-2v0a1.56,1.56,0,0,1,1.36-1.07c2.29-.17,7.85-.24,11.54,2.8C116.46,350.56,114.11,351.05,114.11,351.05Z" style="fill: rgb(197, 63, 63); transform-origin: 109.117px 348.382px;" id="el9dem8d7vrxw" class="animable"></path><path d="M115.84,344.56a20.93,20.93,0,0,0-9.75-2.71,1.57,1.57,0,0,1-1.54-2.11l0,0a1.54,1.54,0,0,1,1.4-1c2.3-.06,7.86.16,11.39,3.39C118.22,344.18,115.84,344.56,115.84,344.56Z" style="fill: rgb(197, 63, 63); transform-origin: 110.994px 341.646px;" id="elykseqjzv39" class="animable"></path><g id="elgokrmqr8vtj"><path d="M114.11,351.05a21.09,21.09,0,0,0-9.88-2.2,1.56,1.56,0,0,1-1.65-2v0a1.56,1.56,0,0,1,1.36-1.07c2.29-.17,7.85-.24,11.54,2.8C116.46,350.56,114.11,351.05,114.11,351.05Z" style="opacity: 0.3; transform-origin: 109.117px 348.382px;" class="animable"></path></g><g id="el7yav1iju2dn"><path d="M115.84,344.56a20.93,20.93,0,0,0-9.75-2.71,1.57,1.57,0,0,1-1.54-2.11l0,0a1.54,1.54,0,0,1,1.4-1c2.3-.06,7.86.16,11.39,3.39C118.22,344.18,115.84,344.56,115.84,344.56Z" style="opacity: 0.3; transform-origin: 110.994px 341.646px;" class="animable"></path></g><path d="M263.42,367.63l18.8-7.46c-.32-4.85-1.51-11.31-.27-24l-21.33-4.07v21.37Z" style="fill: rgb(255, 168, 167); transform-origin: 271.42px 349.865px;" id="eldy5euc30afs" class="animable"></path><path d="M317.08,384.14a6.28,6.28,0,0,1-.26,4.62c-.64,1.35-7.69,5.32-17.2,4.68A39.54,39.54,0,0,1,280,386.57c-3.63-2.4-7.4-2.85-12.11-3.12s-10.89-2.62-11.93-4.82.16-6,.16-6Z" style="fill: rgb(38, 50, 56); transform-origin: 286.468px 383.07px;" id="eltmazyf7ln4k" class="animable"></path><path d="M278.71,354.47l.75-.16a3.11,3.11,0,0,1,1.25-.07,2.43,2.43,0,0,1,1.18.8,23.47,23.47,0,0,1,2.43,3.81c2,3.25,6.17,5.94,10.74,8.4,3.11,1.67,6.15,3,9.36,4.41s7.61,2.37,10.17,4.09c3.74,2.52,4.22,8.84,0,11.33-3.67,2.15-13.32,4.49-23.44,1.62-5.51-1.56-11.63-7.45-18.87-8-4.6-.36-13.3-1.65-16.27-5.14-1.09-1.55.37-6.47,1.57-10.71,1.31-4.63,1.8-12.79,3.33-12.38,0,0-.42,1.15.18,1.77s2.72,1.85,3.33,2.38a12.22,12.22,0,0,1,2.55,3.66,2.76,2.76,0,0,0,1.31,1.42c.77.29,1.35-.2,2-.51A4,4,0,0,1,273,361a17.89,17.89,0,0,0-.48-2.71,1.57,1.57,0,0,1-.07-.88,1.35,1.35,0,0,1,.59-.66A14.74,14.74,0,0,1,278.71,354.47Z" style="fill: rgb(55, 71, 79); transform-origin: 286.602px 371.244px;" id="eljmvjb0tt948" class="animable"></path><path d="M290.77,364.75a4.29,4.29,0,0,0-3.4-2.28c-2.1-.39-5.79,1.16-8.09,3a1.72,1.72,0,0,0,.25,2.84h0a1.71,1.71,0,0,0,2-.22A13.08,13.08,0,0,1,290.77,364.75Z" style="fill: rgb(197, 63, 63); transform-origin: 284.707px 365.472px;" id="el3rlnxmnh7og" class="animable"></path><path d="M297.26,368.38a4.94,4.94,0,0,0-4-2.07s-5.47.15-8.85,3.31a1.67,1.67,0,0,0,.23,2.74h0a1.64,1.64,0,0,0,1.89-.22A13.16,13.16,0,0,1,297.26,368.38Z" style="fill: rgb(197, 63, 63); transform-origin: 290.53px 369.437px;" id="eleh4mc9ua8f" class="animable"></path><path d="M304.42,371.66a5.51,5.51,0,0,0-4.18-1.88s-5.1.19-8.48,3.35a1.68,1.68,0,0,0,.23,2.74h0a1.63,1.63,0,0,0,1.89-.22A12.57,12.57,0,0,1,304.42,371.66Z" style="fill: rgb(197, 63, 63); transform-origin: 297.789px 372.928px;" id="elhvyspft2k19" class="animable"></path><g id="el4b5o04vdv8j"><path d="M290.77,364.75a4.29,4.29,0,0,0-3.4-2.28c-2.1-.39-5.79,1.16-8.09,3a1.72,1.72,0,0,0,.25,2.84h0a1.71,1.71,0,0,0,2-.22A13.08,13.08,0,0,1,290.77,364.75Z" style="opacity: 0.3; transform-origin: 284.707px 365.472px;" class="animable"></path></g><g id="eltdd8q15no1"><path d="M297.26,368.38a4.94,4.94,0,0,0-4-2.07s-5.47.15-8.85,3.31a1.67,1.67,0,0,0,.23,2.74h0a1.64,1.64,0,0,0,1.89-.22A13.16,13.16,0,0,1,297.26,368.38Z" style="opacity: 0.3; transform-origin: 290.53px 369.437px;" class="animable"></path></g><g id="elsvzpsdsxs6q"><path d="M304.42,371.66a5.51,5.51,0,0,0-4.18-1.88s-5.1.19-8.48,3.35a1.68,1.68,0,0,0,.23,2.74h0a1.63,1.63,0,0,0,1.89-.22A12.57,12.57,0,0,1,304.42,371.66Z" style="opacity: 0.3; transform-origin: 297.789px 372.928px;" class="animable"></path></g><path d="M276.27,260.36C262,257.15,227.82,250,227.82,250l.55-9.12C216,247.29,190,245.48,178,236l-1.9,9.67a97,97,0,0,0-11.74,17.68c-2.75,5.43-7.33,13.9-2.77,33.63,2.68,11.58,6.26,42.09,6.26,42.09l-35-12.89s-3,.51-5.54,7.06c-1.49,3.89-2,7.62-.48,9.55,12.8,10.1,33.54,26.62,54.5,35.88,14,5.36,21.44-6.41,22.13-10.77,2.62-16.7,5.66-70.36,5.66-70.36L255.86,296c-1.54,8.86,4.76,43.48,4.76,43.48s11.51,5,21.05-.12c0,0,6.38-39.84,7-53.13C289.34,271.44,290.1,263.46,276.27,260.36Z" style="fill: rgb(197, 63, 63); transform-origin: 207.44px 308.021px;" id="elex3p6wniing" class="animable"></path><g id="el3cweglg76vj"><path d="M255.86,296c0-2.39,1.59-10.75,7-15.19,0,0-7.42,1.33-10.81,15.31Z" style="opacity: 0.15; transform-origin: 257.455px 288.465px;" class="animable"></path></g><g id="el4hlr3j69ih4"><path d="M167.85,339.05s1,13.18,3.51,19.59c0,0-6.31-11.4-7-20.88Z" style="opacity: 0.15; transform-origin: 167.86px 348.2px;" class="animable"></path></g><g id="el4r57llb3y3t"><path d="M227.81,250l.56-9.11C216,247.29,190,245.48,178,236h0l-1.9,9.67h0c.09.1,7.79,8,27.81,9.09S227.81,250,227.81,250Z" style="opacity: 0.15; transform-origin: 202.235px 245.448px;" class="animable"></path></g><g id="elm3secrivu3j"><path d="M209.15,297.52a36.55,36.55,0,0,0-12.25-26.08s10.76,5,14.36,20.83c0,0,8-3.73,12.18-14.91,0,0-1.28,11.18-7.72,17.53l19.42,1.8Z" style="opacity: 0.15; transform-origin: 216.02px 284.48px;" class="animable"></path></g><path d="M202.85,95.27h0a31.25,31.25,0,0,0-31.25,31.25h0a31.26,31.26,0,0,0,31.25,31.26h0a31.27,31.27,0,0,0,31.26-31.26h0A31.26,31.26,0,0,0,202.85,95.27Z" style="fill: rgb(38, 50, 56); transform-origin: 202.855px 126.525px;" id="eluriws480lo" class="animable"></path><path d="M170.25,114.31a16.64,16.64,0,0,1,3.38.19,1.53,1.53,0,0,1,1,.45,1.61,1.61,0,0,1,.26.77,11.32,11.32,0,0,1-.47,5.17c-.45,1.15-1.82,1.75-2.69,2.59-3.38,3.27-3.65,8.71-2.32,13.22s4,8.53,5.73,12.88,2.65,9.62.2,14c-1,1.69-2.68,3-2.47,5,.24,2.45,2.38,4.8,3.3,7a17.12,17.12,0,0,1,1,8.24,17.45,17.45,0,0,1-3.74,9.46A14.31,14.31,0,0,1,159.85,198a6.9,6.9,0,0,1-2.89-1.23c-1.47-1.18-2.05-3.11-2.85-4.82-2.58-5.53-8-9.55-9.66-15.42-1.74-6.21,1.24-12.75,4.9-18.06,1.71-2.48,3.62-4.92,4.46-7.81,1.13-3.91.14-8.08-.12-12.14A33.73,33.73,0,0,1,155,126.73c.83-2.76,2.09-5.94,4.25-7.92A17.48,17.48,0,0,1,170.25,114.31Z" style="fill: rgb(38, 50, 56); transform-origin: 160.621px 156.277px;" id="elpevsi0usik" class="animable"></path><path d="M222.44,109.57c3.43,2.05,7.63,10.7,7.14,28.8-.42,15.34-5.41,19.11-7.91,20.19s-7.31.4-12-.4l0,9.21s6.44,7.54,6,11.76-9.36,5.19-15.4,1S189.15,168,189.15,168l.19-21.18s-2.77,2.67-7.42-1.44c-3.85-3.39-5.12-9.08-2.1-12.12s8.57-2.18,10.68,2.18c0,0,7.46.3,17.43-5.12A27.91,27.91,0,0,0,222.44,109.57Z" style="fill: rgb(255, 168, 167); transform-origin: 203.881px 146.198px;" id="elt738c17a9od" class="animable"></path><path d="M212.47,134.45a1.93,1.93,0,1,1-2-1.92A2,2,0,0,1,212.47,134.45Z" style="fill: rgb(38, 50, 56); transform-origin: 210.54px 134.459px;" id="elq2dilo5sc8" class="animable"></path><g id="elyfj45qfu1yq"><g style="opacity: 0.5; mix-blend-mode: multiply; transform-origin: 215.112px 149.028px;" class="animable"><path d="M212.93,147.45l4.47,1.45a2.31,2.31,0,0,1-2.92,1.6A2.47,2.47,0,0,1,212.93,147.45Z" style="fill: rgb(242, 143, 143); transform-origin: 215.112px 149.028px;" id="el9rtlobmnom" class="animable"></path></g></g><path d="M228.31,128.59l-3.89-2.73a2.28,2.28,0,0,1,3.24-.65A2.49,2.49,0,0,1,228.31,128.59Z" style="fill: rgb(38, 50, 56); transform-origin: 226.564px 126.693px;" id="elgh6cte9z9b8" class="animable"></path><path d="M227.39,133.11a1.93,1.93,0,1,1-2-1.92A2,2,0,0,1,227.39,133.11Z" style="fill: rgb(38, 50, 56); transform-origin: 225.46px 133.119px;" id="el134ifmv9p64b" class="animable"></path><g id="elu6d8pavwpd"><g style="opacity: 0.5; mix-blend-mode: multiply; transform-origin: 221.48px 137.78px;" class="animable"><polygon points="218.29 131.97 218.55 143.59 224.67 141.72 218.29 131.97" style="fill: rgb(242, 143, 143); transform-origin: 221.48px 137.78px;" id="elxk6sw6az0c" class="animable"></polygon></g></g><g id="eldk925rpqgyj"><g style="opacity: 0.5; mix-blend-mode: multiply; transform-origin: 201.36px 155.875px;" class="animable"><path d="M209.68,158.16c-4.93-.67-15.07-3.62-16.64-7.64a10.41,10.41,0,0,0,3.54,5.13c3,2.61,13.08,5.58,13.08,5.58Z" style="fill: rgb(242, 143, 143); transform-origin: 201.36px 155.875px;" id="el5bkcr0819q6" class="animable"></path></g></g><path d="M176.1,167.47c-9.68.68-13.68,1.92-19.07,13.88-4.84,10.75-16.45,38.56-19.35,44.77s-3.45,8.69-1,15.18c2,5.29,18.33,35.68,20.12,40.11s2.58,8.91,5.63,14.07,7.87,10.2,11.68,11.39c5.65,1.77,13-.69,13.22-4.1s-8.29-9.1-10.61-16.67a33,33,0,0,0,4.84,2.63c2.3.94,4.85.73,5.61-.57s-1.53-2.1-3.57-4.12c-1.22-1.21-3.38-3.93-6.14-6.33-1.86-1.62-4.93-2.1-6.3-3.88-.75-.95-4.11-9.18-6.63-16.52-3.13-9.08-7.24-21.18-7.24-21.18l16.82-35S187.31,188,176.1,167.47Z" style="fill: rgb(255, 168, 167); transform-origin: 161.233px 237.465px;" id="el3et8shyn8ak" class="animable"></path><path d="M156.78,281.41s3.87-7.83,14.36-7.58l-2.77-6.16s-10.24.72-14.55,7.64Z" style="fill: rgb(55, 71, 79); transform-origin: 162.48px 274.54px;" id="elzz8v906o4js" class="animable"></path><path d="M155.65,274.76l2.28,3.19a2.1,2.1,0,0,0,3,.46l4-3a2.31,2.31,0,0,0,.51-3.11l-2.09-3.08a2.08,2.08,0,0,0-3-.53l-4.25,3A2.2,2.2,0,0,0,155.65,274.76Z" style="fill: rgb(38, 50, 56); transform-origin: 160.523px 273.557px;" id="eli0no8pyzqnf" class="animable"></path><path d="M154.9,274.68l2.28,3.19a2.11,2.11,0,0,0,3,.47l4-3a2.31,2.31,0,0,0,.52-3.11l-2.09-3.08a2.11,2.11,0,0,0-3-.53l-4.24,3.05A2.18,2.18,0,0,0,154.9,274.68Z" style="fill: rgb(69, 90, 100); transform-origin: 159.79px 273.49px;" id="elmaa53dzphpl" class="animable"></path><path d="M164.28,273.63a1.45,1.45,0,0,1-.57,1l-4,3a1.35,1.35,0,0,1-1,.25,1.26,1.26,0,0,1-.85-.53l-2.28-3.2a1.35,1.35,0,0,1-.25-.93,1.38,1.38,0,0,1,.56-1l4.24-3a1.28,1.28,0,0,1,1-.23,1.26,1.26,0,0,1,.85.55l2.09,3.08a1.49,1.49,0,0,1,.24,1Z" style="fill: rgb(197, 63, 63); transform-origin: 159.822px 273.431px;" id="elgvocc5cxdmu" class="animable"></path></g></g><defs>     <filter id="active" height="200%">         <feMorphology in="SourceAlpha" result="DILATED" operator="dilate" radius="2"></feMorphology>                <feFlood flood-color="#32DFEC" flood-opacity="1" result="PINK"></feFlood>        <feComposite in="PINK" in2="DILATED" operator="in" result="OUTLINE"></feComposite>        <feMerge>            <feMergeNode in="OUTLINE"></feMergeNode>            <feMergeNode in="SourceGraphic"></feMergeNode>        </feMerge>    </filter>    <filter id="hover" height="200%">        <feMorphology in="SourceAlpha" result="DILATED" operator="dilate" radius="2"></feMorphology>                <feFlood flood-color="#ff0000" flood-opacity="0.5" result="PINK"></feFlood>        <feComposite in="PINK" in2="DILATED" operator="in" result="OUTLINE"></feComposite>        <feMerge>            <feMergeNode in="OUTLINE"></feMergeNode>            <feMergeNode in="SourceGraphic"></feMergeNode>        </feMerge>            <feColorMatrix type="matrix" values="0   0   0   0   0                0   1   0   0   0                0   0   0   0   0                0   0   0   1   0 "></feColorMatrix>    </filter></defs></svg>