<svg class="animated" id="freepik_stories-workout" xmlns="http://www.w3.org/2000/svg" xmlns:xlink="http://www.w3.org/1999/xlink" viewBox="0 0 500 500" version="1.1" xmlns:svgjs="http://svgjs.com/svgjs"><style>svg#freepik_stories-workout:not(.animated) .animable {opacity: 0;}svg#freepik_stories-workout.animated #freepik--background-simple--inject-67 {animation: 1s 1 forwards cubic-bezier(.36,-0.01,.5,1.38) fadeIn;animation-delay: 0s;}svg#freepik_stories-workout.animated #freepik--Floor--inject-67 {animation: 1s 1 forwards cubic-bezier(.36,-0.01,.5,1.38) fadeIn;animation-delay: 0s;}svg#freepik_stories-workout.animated #freepik--Character--inject-67 {animation: 1.5s Infinite  linear wind;animation-delay: 0s;}            @keyframes fadeIn {                0% {                    opacity: 0;                }                100% {                    opacity: 1;                }            }                    @keyframes wind {                0% {                    transform: rotate( 0deg );                }                25% {                    transform: rotate( 1deg );                }                75% {                    transform: rotate( -1deg );                }            }        </style><g id="freepik--background-simple--inject-67" class="animable" style="transform-origin: 256.315px 229.308px;"><path d="M423.56,145S399.23,99.3,345.51,92.53s-91.24,26.24-130.77,43.17c-20.71,8.87-44.35,5.43-66.33,9.72C78.13,159.14,51.65,245.1,80.93,294c25.34,42.32,69.94,64.33,137.86,69.41s115.56,11,176.39-30.47S451.94,205.11,423.56,145Z" style="fill: rgb(197, 63, 63); transform-origin: 256.315px 229.308px;" id="elgw41dqd2gyi" class="animable"></path><g id="el7zylupd9pgy"><path d="M423.56,145S399.23,99.3,345.51,92.53s-91.24,26.24-130.77,43.17c-20.71,8.87-44.35,5.43-66.33,9.72C78.13,159.14,51.65,245.1,80.93,294c25.34,42.32,69.94,64.33,137.86,69.41s115.56,11,176.39-30.47S451.94,205.11,423.56,145Z" style="fill: rgb(255, 255, 255); opacity: 0.8; transform-origin: 256.315px 229.308px;" class="animable"></path></g></g><g id="freepik--Window--inject-67" class="animable" style="transform-origin: 254.73px 234.225px;"><rect x="69.67" y="282.76" width="372" height="3.39" style="fill: rgb(38, 50, 56); transform-origin: 255.67px 284.455px;" id="elnom8h6d7gqr" class="animable"></rect><line x1="355" y1="284.76" x2="355" y2="96.93" style="fill: none; stroke: rgb(38, 50, 56); stroke-linecap: round; stroke-linejoin: round; transform-origin: 355px 190.845px;" id="elee8iwwxx8g" class="animable"></line><line x1="187" y1="284.76" x2="187" y2="98.1" style="fill: none; stroke: rgb(38, 50, 56); stroke-linecap: round; stroke-linejoin: round; transform-origin: 187px 191.43px;" id="elfqgcj0wpndj" class="animable"></line><line x1="79.75" y1="192.56" x2="428.24" y2="192.56" style="fill: none; stroke: rgb(38, 50, 56); stroke-linecap: round; stroke-linejoin: round; transform-origin: 253.995px 192.56px;" id="elsrsn07fuwei" class="animable"></line><line x1="79.75" y1="371.52" x2="428.24" y2="371.52" style="fill: none; stroke: rgb(38, 50, 56); stroke-linecap: round; stroke-linejoin: round; transform-origin: 253.995px 371.52px;" id="elff77wwjjbw5" class="animable"></line><line x1="292.66" y1="158.6" x2="290.35" y2="160.02" style="fill: none; stroke: rgb(38, 50, 56); stroke-linecap: round; stroke-linejoin: round; stroke-width: 0.5px; transform-origin: 291.505px 159.31px;" id="elt75dzcb1fab" class="animable"></line><line x1="331.48" y1="134.68" x2="295.75" y2="156.69" style="fill: none; stroke: rgb(38, 50, 56); stroke-linecap: round; stroke-linejoin: round; stroke-width: 0.5px; transform-origin: 313.615px 145.685px;" id="elryfrtg0rg9" class="animable"></line><line x1="336.19" y1="136.16" x2="307.57" y2="153.8" style="fill: none; stroke: rgb(38, 50, 56); stroke-linecap: round; stroke-linejoin: round; stroke-width: 0.5px; transform-origin: 321.88px 144.98px;" id="el0ru3wckxotc" class="animable"></line><line x1="348.69" y1="128.46" x2="340.05" y2="133.79" style="fill: none; stroke: rgb(38, 50, 56); stroke-linecap: round; stroke-linejoin: round; stroke-width: 0.5px; transform-origin: 344.37px 131.125px;" id="elesmswckvsjv" class="animable"></line><line x1="72.14" y1="282.97" x2="67.79" y2="285.65" style="fill: none; stroke: rgb(38, 50, 56); stroke-linecap: round; stroke-linejoin: round; stroke-width: 0.5px; transform-origin: 69.965px 284.31px;" id="elqholsecc5o" class="animable"></line><line x1="145.4" y1="237.83" x2="77.98" y2="279.37" style="fill: none; stroke: rgb(38, 50, 56); stroke-linecap: round; stroke-linejoin: round; stroke-width: 0.5px; transform-origin: 111.69px 258.6px;" id="elr2mcnbvgm48" class="animable"></line><line x1="154.29" y1="240.63" x2="100.28" y2="273.92" style="fill: none; stroke: rgb(38, 50, 56); stroke-linecap: round; stroke-linejoin: round; stroke-width: 0.5px; transform-origin: 127.285px 257.275px;" id="elga76vk6lcbr" class="animable"></line><line x1="177.88" y1="226.09" x2="161.57" y2="236.15" style="fill: none; stroke: rgb(38, 50, 56); stroke-linecap: round; stroke-linejoin: round; stroke-width: 0.5px; transform-origin: 169.725px 231.12px;" id="el6w2bwkzasup" class="animable"></line><line x1="315.78" y1="279.43" x2="311.43" y2="282.11" style="fill: none; stroke: rgb(38, 50, 56); stroke-linecap: round; stroke-linejoin: round; stroke-width: 0.5px; transform-origin: 313.605px 280.77px;" id="elgwthz2s62n5" class="animable"></line><line x1="389.04" y1="234.28" x2="321.62" y2="275.83" style="fill: none; stroke: rgb(38, 50, 56); stroke-linecap: round; stroke-linejoin: round; stroke-width: 0.5px; transform-origin: 355.33px 255.055px;" id="elpfo8nwdqod9" class="animable"></line><line x1="397.93" y1="237.09" x2="343.92" y2="270.38" style="fill: none; stroke: rgb(38, 50, 56); stroke-linecap: round; stroke-linejoin: round; stroke-width: 0.5px; transform-origin: 370.925px 253.735px;" id="ela8xyljnk0qm" class="animable"></line><line x1="421.52" y1="222.55" x2="405.21" y2="232.6" style="fill: none; stroke: rgb(38, 50, 56); stroke-linecap: round; stroke-linejoin: round; stroke-width: 0.5px; transform-origin: 413.365px 227.575px;" id="el75fg1wopblo" class="animable"></line></g><g id="freepik--Floor--inject-67" class="animable" style="transform-origin: 250.67px 404.18px;"><ellipse cx="250.67" cy="404.18" rx="199.3" ry="19.77" style="fill: rgb(197, 63, 63); transform-origin: 250.67px 404.18px;" id="eli2zayat221a" class="animable"></ellipse><g id="elxzw9nn87ui"><ellipse cx="250.67" cy="404.18" rx="199.3" ry="19.77" style="fill: rgb(255, 255, 255); opacity: 0.5; transform-origin: 250.67px 404.18px;" class="animable"></ellipse></g></g><g id="freepik--Character--inject-67" class="animable animator-active" style="transform-origin: 245.32px 262.475px;"><path d="M305.2,259.52c-4.81,4-8.22,8.79-12.33,13.91A135.62,135.62,0,0,0,283,286.61c-4.71,7.62,5.24,71.05,5.24,71.05l-9.47,3.56S258,301.49,256.17,288.06s13.43-38.1,20-44.27,29.76-10.17,38.1-.73c4.83,5.46.14,10.36-4.61,13.28A37.58,37.58,0,0,0,305.2,259.52Z" style="fill: rgb(38, 50, 56); stroke: rgb(38, 50, 56); stroke-linecap: round; stroke-linejoin: round; transform-origin: 286.16px 299.331px;" id="el2vozg96yr7r" class="animable"></path><path d="M293,371c0-1.94-2.78-8.74-4.75-13.31-5.8,2.56-9.59,2.31-9.59,2.31a9.92,9.92,0,0,0-3,3.33c-1,2-8.33,5.34-12.33,6.67s-6.33,3.33-4,5,19,.67,25-.33S293,374,293,371Z" style="fill: rgb(255, 255, 255); stroke: rgb(38, 50, 56); stroke-linecap: round; stroke-linejoin: round; transform-origin: 275.701px 366.792px;" id="el187azx74ja9" class="animable"></path><path d="M275.67,363.3c-1,2-8.33,5.34-12.33,6.67s-6.33,3.33-4,5,19,.67,25-.33S293,374,293,371c0-1.3-1.26-4.79-2.67-8.33L281,365l-2.34-5A9.92,9.92,0,0,0,275.67,363.3Z" style="fill: rgb(255, 255, 255); stroke: rgb(38, 50, 56); stroke-linecap: round; stroke-linejoin: round; transform-origin: 275.706px 367.932px;" id="el6bgu4t6ofsh" class="animable"></path><path d="M203.3,268h11.06a5.41,5.41,0,0,1,5.39,5.85l-1.44,17.8L203,288.13Z" style="fill: rgb(255, 255, 255); stroke: rgb(38, 50, 56); stroke-miterlimit: 10; transform-origin: 211.384px 279.825px;" id="elpnnw255cvv" class="animable"></path><path d="M265.91,317.7A194.65,194.65,0,0,0,222.47,326s10.22,15.65,0,36.1l42.8,20.45,17.89-54.31Zm-14.5,21.62L246,354.9a2.76,2.76,0,0,1-3.31,1.77l-13.51-3.51s3.2-5.43,1.92-16l17.46-1.54A2.77,2.77,0,0,1,251.41,339.32Z" style="fill: rgb(255, 255, 255); transform-origin: 252.815px 350.125px;" id="el1gwnukpp6il" class="animable"></path><g style="clip-path: url(&quot;#freepik--clip-path--inject-67&quot;); transform-origin: 252.815px 350.125px;" id="el3fmafc7dcac" class="animable"><g id="el765f21imlay"><path d="M265.91,317.7A194.65,194.65,0,0,0,222.47,326s10.22,15.65,0,36.1l42.8,20.45,17.89-54.31Zm-14.5,21.62L246,354.9a2.76,2.76,0,0,1-3.31,1.77l-13.51-3.51s3.2-5.43,1.92-16l17.46-1.54A2.77,2.77,0,0,1,251.41,339.32Z" style="stroke: rgb(38, 50, 56); stroke-miterlimit: 10; opacity: 0.31; transform-origin: 252.815px 350.125px;" class="animable"></path></g></g><path d="M265.91,317.7A194.65,194.65,0,0,0,222.47,326s10.22,15.65,0,36.1l42.8,20.45,17.89-54.31Zm-14.5,21.62L246,354.9a2.76,2.76,0,0,1-3.31,1.77l-13.51-3.51s3.2-5.43,1.92-16l17.46-1.54A2.77,2.77,0,0,1,251.41,339.32Z" style="fill: none; stroke: rgb(38, 50, 56); stroke-miterlimit: 10; transform-origin: 252.815px 350.125px;" id="el39xawwlhw4m" class="animable"></path><path d="M200.13,281.4s81.5,16,146.5,115h-16.5s-53-79.5-127.5-103.5Z" style="fill: rgb(197, 63, 63); stroke: rgb(38, 50, 56); stroke-miterlimit: 10; transform-origin: 273.38px 338.9px;" id="el54pilfqutia" class="animable"></path><g id="elqwd8lm42q1f"><circle cx="194.03" cy="344.55" r="40.25" style="fill: rgb(38, 50, 56); stroke: rgb(38, 50, 56); stroke-miterlimit: 10; transform-origin: 194.03px 344.55px; transform: rotate(-68.07deg);" class="animable"></circle></g><g id="eljeepp59ji"><circle cx="194.03" cy="344.55" r="31.15" style="fill: rgb(197, 63, 63); stroke: rgb(38, 50, 56); stroke-miterlimit: 10; transform-origin: 194.03px 344.55px; transform: rotate(-9.31deg);" class="animable"></circle></g><polygon points="306.52 294.65 300.54 294.16 307.31 260.99 313.29 261.48 306.52 294.65" style="fill: rgb(255, 255, 255); stroke: rgb(38, 50, 56); stroke-miterlimit: 10; transform-origin: 306.915px 277.82px;" id="elkkhv4sptk68" class="animable"></polygon><rect x="305.41" y="300.69" width="6.34" height="2.87" style="fill: rgb(255, 255, 255); stroke: rgb(38, 50, 56); stroke-miterlimit: 10; transform-origin: 308.58px 302.125px;" id="elzqzs0j4qf8" class="animable"></rect><path d="M293.45,288.32l15.37,1.57-15.06,96.6s25.72,5.65,41.41,11v8.47s-31.68-9.41-64.62-11.92-77.15,4.71-77.15,4.71v-9.1s35.75-5.33,65.24-5Z" style="fill: rgb(255, 255, 255); stroke: rgb(38, 50, 56); stroke-miterlimit: 10; transform-origin: 264.285px 347.14px;" id="elaf6bfnbrea4" class="animable"></path><rect x="311.29" y="297.06" width="3.47" height="9.21" style="fill: rgb(38, 50, 56); stroke: rgb(38, 50, 56); stroke-linecap: round; stroke-linejoin: round; transform-origin: 313.025px 301.665px;" id="el9bx9mek074u" class="animable"></rect><g id="el1i4dpopse71"><rect x="126.07" y="322.18" width="141.12" height="10" style="fill: rgb(255, 255, 255); stroke: rgb(38, 50, 56); stroke-miterlimit: 10; transform-origin: 196.63px 327.18px; transform: rotate(-85.4261deg);" class="animable"></rect></g><g id="elk11einnk4bo"><rect x="191.57" y="242.11" width="23.56" height="6" style="fill: rgb(255, 255, 255); stroke: rgb(38, 50, 56); stroke-miterlimit: 10; transform-origin: 203.35px 245.11px; transform: rotate(-85.31deg);" class="animable"></rect></g><path d="M299.9,262s17.87,2.43,28.47.91,9.39-10,7.57-14.23-8.78-2.73-16.66-1.51-9.69,3.93-16.35,5.45-12.11.9-11.51,4.84S299.9,262,299.9,262Z" style="fill: rgb(255, 255, 255); transform-origin: 314.261px 254.646px;" id="elstg8q7sz1us" class="animable"></path><g style="clip-path: url(&quot;#freepik--clip-path-2--inject-67&quot;); transform-origin: 314.261px 254.646px;" id="elq83o0jh24hk" class="animable"><g id="el0lygs9wi9jmc"><path d="M299.9,262s17.87,2.43,28.47.91,9.39-10,7.57-14.23-8.78-2.73-16.66-1.51-9.69,3.93-16.35,5.45-12.11.9-11.51,4.84S299.9,262,299.9,262Z" style="stroke: rgb(38, 50, 56); stroke-miterlimit: 10; opacity: 0.2; transform-origin: 314.261px 254.646px;" class="animable"></path></g></g><path d="M299.9,262s17.87,2.43,28.47.91,9.39-10,7.57-14.23-8.78-2.73-16.66-1.51-9.69,3.93-16.35,5.45-12.11.9-11.51,4.84S299.9,262,299.9,262Z" style="fill: none; stroke: rgb(38, 50, 56); stroke-miterlimit: 10; transform-origin: 314.261px 254.646px;" id="elfz089k10tfl" class="animable"></path><path d="M225.48,237.56c-10.36,0-27.24-.95-34.31-4.49-9.77-4.88-28.53-22-29.33-22.69a4,4,0,0,1,5.4-5.91c.18.17,18.73,17.06,27.51,21.45,7.58,3.79,33.53,3.85,37.24,3.5a4,4,0,0,1,2,7.73A51.29,51.29,0,0,1,225.48,237.56Zm6-8h0Zm0,0Z" style="fill: rgb(38, 50, 56); transform-origin: 198.645px 220.508px;" id="el5p3zw0rpckm" class="animable"></path><path d="M280,347.6l-.27,19.16a2.76,2.76,0,0,0,2.75,2.8h0a2.75,2.75,0,0,0,2.73-3.14L282.47,347Z" style="fill: rgb(197, 63, 63); stroke: rgb(38, 50, 56); stroke-miterlimit: 10; transform-origin: 282.484px 358.28px;" id="elnbtedqdm6h" class="animable"></path><path d="M285.69,366.82a3.45,3.45,0,1,0-3.45,3.45A3.45,3.45,0,0,0,285.69,366.82Z" style="fill: rgb(197, 63, 63); stroke: rgb(38, 50, 56); stroke-miterlimit: 10; transform-origin: 282.24px 366.82px;" id="eltzdimf4w2s" class="animable"></path><rect x="272.12" y="343.52" width="18.82" height="4.39" style="fill: rgb(38, 50, 56); stroke: rgb(38, 50, 56); stroke-linecap: round; stroke-linejoin: round; transform-origin: 281.53px 345.715px;" id="eljcbp8dt6fyj" class="animable"></rect><polygon points="185.88 397.09 176.09 413.47 176.09 415.26 194.23 415.26 194.23 412.7 195.84 397.91 185.88 397.09" style="fill: rgb(255, 255, 255); stroke: rgb(38, 50, 56); stroke-miterlimit: 10; transform-origin: 185.965px 406.175px;" id="elxray6gmu5sc" class="animable"></polygon><line x1="176.09" y1="413.47" x2="193.47" y2="413.47" style="fill: rgb(255, 255, 255); stroke: rgb(38, 50, 56); stroke-miterlimit: 10; transform-origin: 184.78px 413.47px;" id="elp46xucgrpgi" class="animable"></line><polygon points="346.63 396.4 348.98 413.47 348.96 415.26 327.13 415.26 327.38 412.7 330.13 396.4 346.63 396.4" style="fill: rgb(197, 63, 63); stroke: rgb(38, 50, 56); stroke-miterlimit: 10; transform-origin: 338.055px 405.83px;" id="ele5zgaemgty" class="animable"></polygon><line x1="348.98" y1="413.47" x2="328.07" y2="413.47" style="fill: rgb(255, 255, 255); stroke: rgb(38, 50, 56); stroke-miterlimit: 10; transform-origin: 338.525px 413.47px;" id="elh0c9m1q82g" class="animable"></line><path d="M216.59,120.1s-5.63,4.47-6.21,8.36.58,8.75-.78,11.47-4.47,3.69-3.5,5,4.08,2.33,4.08,2.33,1.94,7.19,3.89,10.5,4.08,7,7.19,7a7.83,7.83,0,0,0,5.25-2.33s8,6.22,10.1,8,15.55-20.66,15.55-20.66l-7-3.63a19.18,19.18,0,0,0,1.17-3.89,22.67,22.67,0,0,0-3.11-14.58C239.14,120.69,228.84,112.52,216.59,120.1Z" style="fill: rgb(255, 255, 255); transform-origin: 229.038px 143.798px;" id="elbcxm0cmcqy4" class="animable"></path><g style="clip-path: url(&quot;#freepik--clip-path-3--inject-67&quot;); transform-origin: 235.83px 144.45px;" id="ela7zmkqw5t49" class="animable"><path d="M245.16,146.15a19.18,19.18,0,0,0,1.17-3.89,22.67,22.67,0,0,0-3.11-14.58,23,23,0,0,0-9.2-8.76l-10.5,7.18s-3.08,2.31-1.8,5.14,6.95,9.51,8.75,14.39-.52,11.31-4.37,14.14c-2.28,1.67-5.27,3.34-6.65,4.59a4.06,4.06,0,0,0,1.81.44,7.83,7.83,0,0,0,5.25-2.33s6,4.65,9,7l2.47.51c4-3.19,14.23-20.24,14.23-20.24Z" style="fill: rgb(197, 63, 63); transform-origin: 235.83px 144.45px;" id="el8rlr5o67q3y" class="animable"></path><g id="el3njvdol5agv"><path d="M245.16,146.15a19.18,19.18,0,0,0,1.17-3.89,22.67,22.67,0,0,0-3.11-14.58,23,23,0,0,0-9.2-8.76l-10.5,7.18s-3.08,2.31-1.8,5.14,6.95,9.51,8.75,14.39-.52,11.31-4.37,14.14c-2.28,1.67-5.27,3.34-6.65,4.59a4.06,4.06,0,0,0,1.81.44,7.83,7.83,0,0,0,5.25-2.33s6,4.65,9,7l2.47.51c4-3.19,14.23-20.24,14.23-20.24Z" style="fill: rgb(255, 255, 255); opacity: 0.5; transform-origin: 235.83px 144.45px;" class="animable"></path></g></g><path d="M216.59,120.1s-5.63,4.47-6.21,8.36.58,8.75-.78,11.47-4.47,3.69-3.5,5,4.08,2.33,4.08,2.33,1.94,7.19,3.89,10.5,4.08,7,7.19,7a7.83,7.83,0,0,0,5.25-2.33s8,6.22,10.1,8,15.55-20.66,15.55-20.66l-7-3.63a19.18,19.18,0,0,0,1.17-3.89,22.67,22.67,0,0,0-3.11-14.58C239.14,120.69,228.84,112.52,216.59,120.1Z" style="fill: none; stroke: rgb(38, 50, 56); stroke-linecap: round; stroke-linejoin: round; transform-origin: 229.038px 143.798px;" id="elt9g4g4w7nqf" class="animable"></path><path d="M212.91,149.5s.44-2,2.2-1.54" style="fill: none; stroke: rgb(38, 50, 56); stroke-linecap: round; stroke-linejoin: round; transform-origin: 214.01px 148.696px;" id="elohiptnmts7r" class="animable"></path><path d="M216.4,138.47c0,1-.39,1.85-.87,1.85s-.88-.83-.88-1.85.39-1.85.88-1.85S216.4,137.45,216.4,138.47Z" style="fill: rgb(38, 50, 56); transform-origin: 215.525px 138.47px;" id="elhtodyipm7ml" class="animable"></path><path d="M213.49,135.46s1.16-3.5,4.27-1.56" style="fill: none; stroke: rgb(38, 50, 56); stroke-linecap: round; stroke-linejoin: round; stroke-width: 1.5px; transform-origin: 215.625px 134.387px;" id="elnbt7o1bsuwn" class="animable"></path><path d="M226.51,162.47s5.63-3.5,7-9.72" style="fill: none; stroke: rgb(38, 50, 56); stroke-linecap: round; stroke-linejoin: round; transform-origin: 230.01px 157.61px;" id="el81ponq4k264" class="animable"></path><path d="M262.81,151.94s-9.22-5.79-18.63-2-17.35,29.11-17,38.51,8.5,24.77,18.26,27.12,11.75-.36,11.75-.36.55,5.79,4.88,9.22,6.15,3.8,6.15,3.8S263.89,240,278.18,248s35.62,9,45.38,5.42,14.83-17.54,15.19-30.92-8.5-20.07-12.66-24-17.9-8.86-17.9-8.86S295.35,174.36,284.32,165A74.42,74.42,0,0,0,262.81,151.94Z" style="fill: rgb(255, 255, 255); transform-origin: 282.965px 202.023px;" id="elyvma1w4a4wq" class="animable"></path><g style="clip-path: url(&quot;#freepik--clip-path-4--inject-67&quot;); transform-origin: 278.318px 183.632px;" id="el0ytwvauolbio" class="animable"><path d="M307.33,199.07c1.06-2,1.46-5.43,1.28-9.37l-.42-.16S295.35,174.36,284.32,165a74.42,74.42,0,0,0-21.51-13,24.54,24.54,0,0,0-6.16-2.52c-2.83.5-3,1.8,1.06,5.15,7.33,6.06,9,24.66,6.92,28.57s-8.72-3.31-13.83.9-3.43,24.77,6.4,31.18a100.16,100.16,0,0,0,23.07,2.5C293.8,217.72,304,205.39,307.33,199.07Z" style="fill: rgb(197, 63, 63); transform-origin: 278.318px 183.632px;" id="eljip4fzo5xu" class="animable"></path><g id="elfynqslj8w"><path d="M307.33,199.07c1.06-2,1.46-5.43,1.28-9.37l-.42-.16S295.35,174.36,284.32,165a74.42,74.42,0,0,0-21.51-13,24.54,24.54,0,0,0-6.16-2.52c-2.83.5-3,1.8,1.06,5.15,7.33,6.06,9,24.66,6.92,28.57s-8.72-3.31-13.83.9-3.43,24.77,6.4,31.18a100.16,100.16,0,0,0,23.07,2.5C293.8,217.72,304,205.39,307.33,199.07Z" style="fill: rgb(255, 255, 255); opacity: 0.5; transform-origin: 278.318px 183.632px;" class="animable"></path></g></g><path d="M262.81,151.94s-9.22-5.79-18.63-2-17.35,29.11-17,38.51,8.5,24.77,18.26,27.12,11.75-.36,11.75-.36.55,5.79,4.88,9.22,6.15,3.8,6.15,3.8S263.89,240,278.18,248s35.62,9,45.38,5.42,14.83-17.54,15.19-30.92-8.5-20.07-12.66-24-17.9-8.86-17.9-8.86S295.35,174.36,284.32,165A74.42,74.42,0,0,0,262.81,151.94Z" style="fill: none; stroke: rgb(38, 50, 56); stroke-linecap: round; stroke-linejoin: round; transform-origin: 282.965px 202.023px;" id="elnx18gmk7c5" class="animable"></path><path d="M277.63,193A120.47,120.47,0,0,0,287.79,168q-1.74-1.62-3.47-3.09a80.08,80.08,0,0,0-8.45-6.28l-2.76,3.75s-9.25-9.35-15.4-12.06c-.84-.37-4.91-1.44-5.77-1.67a18.34,18.34,0,0,0-7.76,1.26,11.22,11.22,0,0,0-3.47,2.39c1.28-.14,5-1.68,6.48-1.68,8.32,0,13.59,5.47,15.94,7.82s7.27,9,7.27,9a30.18,30.18,0,0,1-12.47,16.27c-10.13,6.69-21.34,10.12-25.86,10.12a30.85,30.85,0,0,0-4,.08c2.42,9,9.34,19.69,17.36,21.62,9.76,2.35,11.75-.36,11.75-.36S268.41,210,277.63,193Z" style="fill: rgb(197, 63, 63); transform-origin: 257.93px 182.555px;" id="elwuf2m3t6hbk" class="animable"></path><g style="clip-path: url(&quot;#freepik--clip-path-5--inject-67&quot;); transform-origin: 263.165px 182.62px;" id="elisq7chy9e6k" class="animable"><g id="el00o4nwtdi9wm"><path d="M277.63,193c-9.22,17-20.43,22.24-20.43,22.24s-2,2.71-11.75.36a16.33,16.33,0,0,1-6.94-3.94c4.06.33,12.44.29,12-5.65-.36-4.69-3-11-4.85-15.74a75.54,75.54,0,0,0,9.52-4.77c5.11,1.27,11.05,2.61,15.77,2.47,0,0,5.83.55,9.61-.7C279.66,189.11,278.7,191,277.63,193Zm-14.5-34.5c.53.53,1.2,1.29,1.91,2.15,8.23,5.43,15.79,15.85,17.78,21.57a116.08,116.08,0,0,0,5-14.16q-1.74-1.62-3.47-3.09a80.08,80.08,0,0,0-8.45-6.28l-2.76,3.75s-9.25-9.35-15.4-12.06c-.84-.37-4.91-1.44-5.77-1.67a18.34,18.34,0,0,0-7.76,1.26,11.22,11.22,0,0,0-3.47,2.39c1.28-.14,5-1.68,6.48-1.68C255.51,150.66,260.78,156.13,263.13,158.48Z" style="opacity: 0.15; transform-origin: 263.165px 182.62px;" class="animable"></path></g></g><path d="M277.63,193A120.47,120.47,0,0,0,287.79,168q-1.74-1.62-3.47-3.09a80.08,80.08,0,0,0-8.45-6.28l-2.76,3.75s-9.25-9.35-15.4-12.06c-.84-.37-4.91-1.44-5.77-1.67a18.34,18.34,0,0,0-7.76,1.26,11.22,11.22,0,0,0-3.47,2.39c1.28-.14,5-1.68,6.48-1.68,8.32,0,13.59,5.47,15.94,7.82s7.27,9,7.27,9a30.18,30.18,0,0,1-12.47,16.27c-10.13,6.69-21.34,10.12-25.86,10.12a30.85,30.85,0,0,0-4,.08c2.42,9,9.34,19.69,17.36,21.62,9.76,2.35,11.75-.36,11.75-.36S268.41,210,277.63,193Z" style="fill: none; stroke: rgb(38, 50, 56); stroke-linecap: round; stroke-linejoin: round; transform-origin: 257.93px 182.555px;" id="eliefdakzjxw" class="animable"></path><path d="M246.63,155.74s-8,1-13.33,9.66-17,44-17,44-18.33,1-25.67-.66-15-5.34-18.66-8.34-5-5.66-8.34-5.33-7.66,2-8,4a20.78,20.78,0,0,0-.33,3S159,211.4,162,211.4s2.66-2.33,4.66-3.66,2,1.72,7.33,2c0,0,18.37,10.31,28.67,15.61,9.65,5,20.67,6.67,24.67,3.67s21.33-29,27.67-52.33" style="fill: rgb(255, 255, 255); transform-origin: 205.15px 193.127px;" id="elwqf9f2o76p" class="animable"></path><g style="clip-path: url(&quot;#freepik--clip-path-6--inject-67&quot;); transform-origin: 214.449px 204.417px;" id="eltaz6u3sbhp" class="animable"><path d="M248.69,178.32c-3.61,1.51-10.52,18.35-16.24,29.77S218,227,206,222.53c-5.44-2-27.67-10.53-27.67-10.53l.4.45c6.15,3.42,16.9,9.34,23.91,13,9.65,5,20.67,6.67,24.67,3.67,3.17-2.38,14.7-19.19,22.5-37.67C250.36,187.59,251.65,177.09,248.69,178.32Z" style="fill: rgb(197, 63, 63); transform-origin: 214.449px 204.417px;" id="el0r9boyug7v3i" class="animable"></path><g id="elqirghi7vbne"><path d="M248.69,178.32c-3.61,1.51-10.52,18.35-16.24,29.77S218,227,206,222.53c-5.44-2-27.67-10.53-27.67-10.53l.4.45c6.15,3.42,16.9,9.34,23.91,13,9.65,5,20.67,6.67,24.67,3.67,3.17-2.38,14.7-19.19,22.5-37.67C250.36,187.59,251.65,177.09,248.69,178.32Z" style="fill: rgb(255, 255, 255); opacity: 0.5; transform-origin: 214.449px 204.417px;" class="animable"></path></g></g><path d="M246.63,155.74s-8,1-13.33,9.66-17,44-17,44-18.33,1-25.67-.66-15-5.34-18.66-8.34-5-5.66-8.34-5.33-7.66,2-8,4a20.78,20.78,0,0,0-.33,3S159,211.4,162,211.4s2.66-2.33,4.66-3.66,2,1.72,7.33,2c0,0,18.37,10.31,28.67,15.61,9.65,5,20.67,6.67,24.67,3.67s21.33-29,27.67-52.33" style="fill: none; stroke: rgb(38, 50, 56); stroke-linecap: round; stroke-linejoin: round; transform-origin: 205.15px 193.127px;" id="el68zz05ykwo2" class="animable"></path><path d="M156,203.41s.94-3.46,2.67-4.4a17.49,17.49,0,0,1,3.61-1.41" style="fill: none; stroke: rgb(38, 50, 56); stroke-linecap: round; stroke-linejoin: round; transform-origin: 159.14px 200.505px;" id="elh74akfi2kfl" class="animable"></path><path d="M157.53,206.08a19,19,0,0,1,3.45-4.71,7.17,7.17,0,0,1,4.08-1.42" style="fill: none; stroke: rgb(38, 50, 56); stroke-linecap: round; stroke-linejoin: round; transform-origin: 161.295px 203.015px;" id="elfflhz8eu2qt" class="animable"></path><path d="M160.67,210.63s-1.1-3.3.47-4.71,5.65-2.51,5.65-2.51" style="fill: none; stroke: rgb(38, 50, 56); stroke-linecap: round; stroke-linejoin: round; transform-origin: 163.543px 207.02px;" id="ella2hoojy4qr" class="animable"></path><path d="M326.09,198.4c-4.17-3.39-16.15-8.22-17.73-8.79-19.71,32.31-40.13,38.63-40.13,38.63S263.89,240,278.18,248s35.62,9,45.38,5.42,16.68-16.5,17-29.88S331.35,202.68,326.09,198.4Z" style="fill: rgb(38, 50, 56); stroke: rgb(38, 50, 56); stroke-linecap: round; stroke-linejoin: round; transform-origin: 304.089px 222.501px;" id="el3bsupajo83" class="animable"></path><path d="M310.3,216.74s-22,6.33-41.33,16.66-39.67,36-37.34,40,50.67,56,50.67,56a10,10,0,0,0-3,3.34c-1,2-8.33,5.33-12.33,6.66s-6.34,3.34-4,5,19,.67,25-.33,8.66-.67,8.66-3.67S290,322.74,290,322.74L272,273.4s51.33-12.66,59.66-26.33,7.12-24.62,7.12-24.62" style="fill: rgb(38, 50, 56); stroke: rgb(38, 50, 56); stroke-linecap: round; stroke-linejoin: round; transform-origin: 285.144px 281.015px;" id="elh6p65zb6l38" class="animable"></path><line x1="271.97" y1="273.4" x2="260.97" y2="275.74" style="fill: none; stroke: rgb(255, 255, 255); stroke-linecap: round; stroke-linejoin: round; transform-origin: 266.47px 274.57px;" id="elocq736fz9kd" class="animable"></line><path d="M296.63,340.4c0-1.93-2.78-8.73-4.75-13.31-5.8,2.56-9.58,2.31-9.58,2.31a10,10,0,0,0-3,3.34c-1,2-8.33,5.33-12.33,6.66s-6.34,3.34-4,5,19,.67,25-.33S296.63,343.4,296.63,340.4Z" style="fill: rgb(255, 255, 255); stroke: rgb(38, 50, 56); stroke-linecap: round; stroke-linejoin: round; transform-origin: 279.334px 336.19px;" id="el513bhylkmur" class="animable"></path><path d="M279.3,332.74c-1,2-8.33,5.33-12.33,6.66s-6.34,3.34-4,5,19,.67,25-.33,8.66-.67,8.66-3.67c0-1.3-1.25-4.79-2.67-8.33l-9.33,2.33-2.33-5A10,10,0,0,0,279.3,332.74Z" style="fill: rgb(255, 255, 255); stroke: rgb(38, 50, 56); stroke-linecap: round; stroke-linejoin: round; transform-origin: 279.334px 337.345px;" id="el5x23ynozb3u" class="animable"></path><path d="M271.13,232.9s29-16.5,47-21" style="fill: none; stroke: rgb(255, 255, 255); stroke-linecap: round; stroke-linejoin: round; transform-origin: 294.63px 222.4px;" id="elmbuvqmuo76k" class="animable"></path><path d="M213.87,123.21s7.39-2.33,8.17-.77-3.11,7-1,7.77,6.42,3.11,6.61,5,2,4.28,3.31,3.31.19-4.09,3.69-4.09,4.27,5.45,2.53,7.78-4.67,3.89-3.5,4.08,7.58.58,12.05-1.17,6.23-13,5-20.22a18.13,18.13,0,0,0-15.34-15.17c-5.08-.44-12.24,2.94-12.24,2.94s-6.41-3.11-10.3,1.94a9.41,9.41,0,0,0-1,10.11Z" style="fill: rgb(38, 50, 56); stroke: rgb(38, 50, 56); stroke-linecap: round; stroke-linejoin: round; transform-origin: 230.967px 128.078px;" id="eljns68gsvgi" class="animable"></path><path d="M248.66,130.6a4.09,4.09,0,0,1,4.08-4.86c4.86-.39,9.72,3.89,9.92,8.16s-1.37,10.11-7.2,9.91-7-3.49-7-3.49Z" style="fill: rgb(38, 50, 56); stroke: rgb(38, 50, 56); stroke-linecap: round; stroke-linejoin: round; transform-origin: 255.568px 134.765px;" id="el24pyd5uitsy" class="animable"></path></g><defs>     <filter id="active" height="200%">         <feMorphology in="SourceAlpha" result="DILATED" operator="dilate" radius="2"></feMorphology>                <feFlood flood-color="#32DFEC" flood-opacity="1" result="PINK"></feFlood>        <feComposite in="PINK" in2="DILATED" operator="in" result="OUTLINE"></feComposite>        <feMerge>            <feMergeNode in="OUTLINE"></feMergeNode>            <feMergeNode in="SourceGraphic"></feMergeNode>        </feMerge>    </filter>    <filter id="hover" height="200%">        <feMorphology in="SourceAlpha" result="DILATED" operator="dilate" radius="2"></feMorphology>                <feFlood flood-color="#ff0000" flood-opacity="0.5" result="PINK"></feFlood>        <feComposite in="PINK" in2="DILATED" operator="in" result="OUTLINE"></feComposite>        <feMerge>            <feMergeNode in="OUTLINE"></feMergeNode>            <feMergeNode in="SourceGraphic"></feMergeNode>        </feMerge>            <feColorMatrix type="matrix" values="0   0   0   0   0                0   1   0   0   0                0   0   0   0   0                0   0   0   1   0 "></feColorMatrix>    </filter></defs><defs><clipPath id="freepik--clip-path--inject-67"><path d="M265.91,317.7A194.65,194.65,0,0,0,222.47,326s10.22,15.65,0,36.1l42.8,20.45,17.89-54.31Zm-14.5,21.62L246,354.9a2.76,2.76,0,0,1-3.31,1.77l-13.51-3.51s3.2-5.43,1.92-16l17.46-1.54A2.77,2.77,0,0,1,251.41,339.32Z" style="fill:#fff;stroke:#263238;stroke-miterlimit:10"></path></clipPath><clipPath id="freepik--clip-path-2--inject-67"><path d="M299.9,262s17.87,2.43,28.47.91,9.39-10,7.57-14.23-8.78-2.73-16.66-1.51-9.69,3.93-16.35,5.45-12.11.9-11.51,4.84S299.9,262,299.9,262Z" style="fill:#fff;stroke:#263238;stroke-miterlimit:10"></path></clipPath><clipPath id="freepik--clip-path-3--inject-67"><path d="M216.59,120.1s-5.63,4.47-6.21,8.36.58,8.75-.78,11.47-4.47,3.69-3.5,5,4.08,2.33,4.08,2.33,1.94,7.19,3.89,10.5,4.08,7,7.19,7a7.83,7.83,0,0,0,5.25-2.33s8,6.22,10.1,8,15.55-20.66,15.55-20.66l-7-3.63a19.18,19.18,0,0,0,1.17-3.89,22.67,22.67,0,0,0-3.11-14.58C239.14,120.69,228.84,112.52,216.59,120.1Z" style="fill:#fff;stroke:#263238;stroke-linecap:round;stroke-linejoin:round"></path></clipPath><clipPath id="freepik--clip-path-4--inject-67"><path d="M262.81,151.94s-9.22-5.79-18.63-2-17.35,29.11-17,38.51,8.5,24.77,18.26,27.12,11.75-.36,11.75-.36.55,5.79,4.88,9.22,6.15,3.8,6.15,3.8S263.89,240,278.18,248s35.62,9,45.38,5.42,14.83-17.54,15.19-30.92-8.5-20.07-12.66-24-17.9-8.86-17.9-8.86S295.35,174.36,284.32,165A74.42,74.42,0,0,0,262.81,151.94Z" style="fill:#fff;stroke:#263238;stroke-linecap:round;stroke-linejoin:round"></path></clipPath><clipPath id="freepik--clip-path-5--inject-67"><path d="M277.63,193A120.47,120.47,0,0,0,287.79,168q-1.74-1.62-3.47-3.09a80.08,80.08,0,0,0-8.45-6.28l-2.76,3.75s-9.25-9.35-15.4-12.06c-.84-.37-4.91-1.44-5.77-1.67a18.34,18.34,0,0,0-7.76,1.26,11.22,11.22,0,0,0-3.47,2.39c1.28-.14,5-1.68,6.48-1.68,8.32,0,13.59,5.47,15.94,7.82s7.27,9,7.27,9a30.18,30.18,0,0,1-12.47,16.27c-10.13,6.69-21.34,10.12-25.86,10.12a30.85,30.85,0,0,0-4,.08c2.42,9,9.34,19.69,17.36,21.62,9.76,2.35,11.75-.36,11.75-.36S268.41,210,277.63,193Z" style="fill:#C53F3F;stroke:#263238;stroke-linecap:round;stroke-linejoin:round"></path></clipPath><clipPath id="freepik--clip-path-6--inject-67"><path d="M246.63,155.74s-8,1-13.33,9.66-17,44-17,44-18.33,1-25.67-.66-15-5.34-18.66-8.34-5-5.66-8.34-5.33-7.66,2-8,4a20.78,20.78,0,0,0-.33,3S159,211.4,162,211.4s2.66-2.33,4.66-3.66,2,1.72,7.33,2c0,0,18.37,10.31,28.67,15.61,9.65,5,20.67,6.67,24.67,3.67s21.33-29,27.67-52.33" style="fill:#fff;stroke:#263238;stroke-linecap:round;stroke-linejoin:round"></path></clipPath></defs></svg>